<svg width="139" height="73" viewBox="0 0 139 73" fill="none" xmlns="http://www.w3.org/2000/svg">
<mask id="path-1-outside-1_2611_715" maskUnits="userSpaceOnUse" x="-0.149902" y="-0.100098" width="139" height="73" fill="black">
<rect fill="white" x="-0.149902" y="-0.100098" width="139" height="73"/>
<path d="M3.0001 58.3499C3.0001 55.7499 3.8001 53.5999 5.4001 51.8999C7.0001 50.1999 8.8001 49.2999 10.8001 49.1999C12.5001 48.9999 13.8501 49.3999 14.8501 50.3999C15.8501 51.2999 16.3501 52.4499 16.3501 53.8499C16.2501 54.9499 15.9001 55.8499 15.3001 56.5499C14.8001 57.2499 14.0001 57.9999 12.9001 58.7999C12.1001 59.2999 11.4001 59.8499 10.8001 60.4499C10.3001 61.0499 10.1001 61.7499 10.2001 62.5499C10.2001 64.1499 11.4001 65.4999 13.8001 66.5999C16.3001 67.5999 20.0001 67.8999 24.9001 67.4999C27.8001 67.1999 30.6501 66.6499 33.4501 65.8499C36.3501 64.9499 39.1001 63.8999 41.7001 62.6999C44.4001 61.4999 46.9501 60.1999 49.3501 58.7999C51.7501 57.2999 54.0001 55.8499 56.1001 54.4499C55.4001 53.8499 54.5501 52.9999 53.5501 51.8999C52.6501 50.6999 51.7501 49.3499 50.8501 47.8499C50.0501 46.3499 49.3501 44.7499 48.7501 43.0499C48.1501 41.2499 47.8501 39.3999 47.8501 37.4999C47.9501 32.9999 49.6001 29.2499 52.8001 26.2499C56.0001 23.1499 60.3001 21.6499 65.7001 21.7499C67.7001 21.8499 69.5501 22.2999 71.2501 23.0999C72.9501 23.7999 74.4501 24.6999 75.7501 25.7999C77.1501 26.7999 78.3001 27.9499 79.2001 29.2499C80.2001 30.4499 80.9001 31.5499 81.3001 32.5499C82.4001 31.4499 83.5001 30.3999 84.6001 29.3999C85.7001 28.2999 86.7001 27.3499 87.6001 26.5499C91.6001 22.9499 95.5001 19.5999 99.3001 16.4999C103.2 13.2999 107.05 10.6999 110.85 8.6999C113.75 7.0999 116.75 5.7499 119.85 4.6499C122.95 3.5499 125.95 2.9999 128.85 2.9999C130.25 2.9999 131.35 3.1999 132.15 3.5999C133.05 3.8999 133.7 4.1999 134.1 4.4999C134.6 4.8999 134.95 5.2999 135.15 5.6999C135.35 6.0999 135.35 6.3999 135.15 6.5999C135.05 6.5999 134.5 6.2499 133.5 5.5499C133.2 5.3499 132.7 5.1499 132 4.9499C131.3 4.7499 130.7 4.6499 130.2 4.6499C129.4 4.6499 128.55 4.7999 127.65 5.0999C126.75 5.3999 126 5.7999 125.4 6.2999C124.6 6.9999 123.65 7.8999 122.55 8.9999C121.55 10.0999 120.5 11.2999 119.4 12.5999C118.3 13.7999 117.2 15.0999 116.1 16.4999C115.1 17.8999 114.15 19.1999 113.25 20.3999C108.55 26.8999 103.75 33.8499 98.8501 41.2499C94.0501 48.5499 89.5001 55.6999 85.2001 62.6999C87.8001 62.4999 90.6501 61.6499 93.7501 60.1499C95.3501 59.3499 96.9001 58.2999 98.4001 56.9999C99.9001 55.6999 101.15 54.5999 102.15 53.6999C102.65 53.1999 103.15 52.7499 103.65 52.3499C104.15 51.9499 104.5 51.8499 104.7 52.0499C105 52.3499 104.45 53.1999 103.05 54.5999C101.95 55.5999 100.65 56.7499 99.1501 58.0499C97.7501 59.2499 96.1001 60.3499 94.2001 61.3499C92.6001 62.1499 90.9001 62.7999 89.1001 63.2999C87.4001 63.7999 85.8501 64.0999 84.4501 64.1999C83.3501 65.2999 82.3501 66.1499 81.4501 66.7499C80.6501 67.3499 79.7001 67.7499 78.6001 67.9499C77.5001 68.1499 76.6501 68.1999 76.0501 68.0999C75.5501 67.9999 75.2001 67.7999 75.0001 67.4999C74.8001 67.2999 74.7501 67.0499 74.8501 66.7499C74.9501 66.3499 75.0501 66.0499 75.1501 65.8499C75.3501 65.3499 75.5501 64.9499 75.7501 64.6499C75.9501 64.2499 76.1501 63.8999 76.3501 63.5999C74.9501 63.3999 73.2501 63.0499 71.2501 62.5499C69.2501 61.9499 67.6501 61.3999 66.4501 60.8999C64.8501 60.2999 63.2001 59.4999 61.5001 58.4999C59.9001 57.4999 58.6001 56.5499 57.6001 55.6499C56.2001 56.6499 54.3501 57.8999 52.0501 59.3999C49.7501 60.7999 47.1001 62.2499 44.1001 63.7499C41.2001 65.1499 38.0501 66.3499 34.6501 67.3499C31.3501 68.4499 27.9501 69.1499 24.4501 69.4499C21.5501 69.6499 18.8001 69.5499 16.2001 69.1499C13.6001 68.8499 11.3001 68.2499 9.3001 67.3499C7.4001 66.4499 5.8501 65.2999 4.6501 63.8999C3.5501 62.3999 3.0001 60.5999 3.0001 58.4999V58.3499ZM83.7001 52.0499C84.5001 50.6499 85.6501 48.8499 87.1501 46.6499C88.6501 44.4499 90.2501 42.1499 91.9501 39.7499C93.6501 37.2499 95.3501 34.7999 97.0501 32.3999C98.8501 29.9999 100.4 27.9499 101.7 26.2499C106.3 20.2499 110.6 15.5499 114.6 12.1499C118.6 8.7499 122.35 6.1999 125.85 4.4999V4.3499C124.15 4.5499 122 5.1499 119.4 6.1499C116.8 7.0499 114.2 8.1999 111.6 9.5999C108.1 11.5999 104.6 13.9999 101.1 16.7999C97.6001 19.5999 94.4001 22.2999 91.5001 24.8999C89.9001 26.3999 88.3001 27.9499 86.7001 29.5499C85.1001 31.1499 83.5501 32.6499 82.0501 34.0499C82.4501 34.8499 82.8001 36.1499 83.1001 37.9499C83.5001 39.6499 83.8001 41.5499 84.0001 43.6499C84.2001 46.4499 84.0501 49.2499 83.5501 52.0499H83.7001ZM65.7001 23.9999C63.8001 23.9999 62.1001 24.3999 60.6001 25.1999C59.1001 25.9999 57.8001 27.0499 56.7001 28.3499C55.7001 29.5499 54.9001 30.9999 54.3001 32.6999C53.8001 34.2999 53.5001 35.9999 53.4001 37.7999C53.3001 40.8999 53.8501 43.8499 55.0501 46.6499C56.2501 49.4499 57.3501 51.4499 58.3501 52.6499C59.8501 51.3499 61.5501 49.9499 63.4501 48.4499C65.3501 46.8499 67.3001 45.1499 69.3001 43.3499C72.9001 40.2499 76.4501 36.9999 79.9501 33.5999C78.4501 30.7999 76.5001 28.4999 74.1001 26.6999C71.7001 24.8999 68.9501 23.9999 65.8501 23.9999H65.7001ZM59.4001 54.1499C60.2001 55.0499 61.3501 55.9499 62.8501 56.8499C64.3501 57.7499 65.8001 58.5499 67.2001 59.2499C68.4001 59.7499 69.9501 60.2999 71.8501 60.8999C73.8501 61.4999 75.5501 61.8999 76.9501 62.0999C77.2501 61.5999 77.6001 60.9999 78.0001 60.2999C78.5001 59.4999 78.9501 58.7499 79.3501 58.0499C79.8501 57.3499 80.3001 56.7499 80.7001 56.2499C81.1001 55.6499 81.3501 55.1999 81.4501 54.8999C81.9501 53.7999 82.2501 52.2499 82.3501 50.2499C82.5501 48.2499 82.5501 46.0999 82.3501 43.7999C82.1501 42.1999 81.9001 40.6499 81.6001 39.1499C81.4001 37.6499 81.0501 36.3499 80.5501 35.2499C78.7501 36.9499 77.0001 38.5999 75.3001 40.1999C73.6001 41.7999 71.9001 43.2999 70.2001 44.6999C68.2001 46.4999 66.3001 48.1499 64.5001 49.6499C62.8001 51.1499 61.1001 52.5999 59.4001 53.9999V54.1499Z"/>
</mask>
<path d="M3.0001 58.3499C3.0001 55.7499 3.8001 53.5999 5.4001 51.8999C7.0001 50.1999 8.8001 49.2999 10.8001 49.1999C12.5001 48.9999 13.8501 49.3999 14.8501 50.3999C15.8501 51.2999 16.3501 52.4499 16.3501 53.8499C16.2501 54.9499 15.9001 55.8499 15.3001 56.5499C14.8001 57.2499 14.0001 57.9999 12.9001 58.7999C12.1001 59.2999 11.4001 59.8499 10.8001 60.4499C10.3001 61.0499 10.1001 61.7499 10.2001 62.5499C10.2001 64.1499 11.4001 65.4999 13.8001 66.5999C16.3001 67.5999 20.0001 67.8999 24.9001 67.4999C27.8001 67.1999 30.6501 66.6499 33.4501 65.8499C36.3501 64.9499 39.1001 63.8999 41.7001 62.6999C44.4001 61.4999 46.9501 60.1999 49.3501 58.7999C51.7501 57.2999 54.0001 55.8499 56.1001 54.4499C55.4001 53.8499 54.5501 52.9999 53.5501 51.8999C52.6501 50.6999 51.7501 49.3499 50.8501 47.8499C50.0501 46.3499 49.3501 44.7499 48.7501 43.0499C48.1501 41.2499 47.8501 39.3999 47.8501 37.4999C47.9501 32.9999 49.6001 29.2499 52.8001 26.2499C56.0001 23.1499 60.3001 21.6499 65.7001 21.7499C67.7001 21.8499 69.5501 22.2999 71.2501 23.0999C72.9501 23.7999 74.4501 24.6999 75.7501 25.7999C77.1501 26.7999 78.3001 27.9499 79.2001 29.2499C80.2001 30.4499 80.9001 31.5499 81.3001 32.5499C82.4001 31.4499 83.5001 30.3999 84.6001 29.3999C85.7001 28.2999 86.7001 27.3499 87.6001 26.5499C91.6001 22.9499 95.5001 19.5999 99.3001 16.4999C103.2 13.2999 107.05 10.6999 110.85 8.6999C113.75 7.0999 116.75 5.7499 119.85 4.6499C122.95 3.5499 125.95 2.9999 128.85 2.9999C130.25 2.9999 131.35 3.1999 132.15 3.5999C133.05 3.8999 133.7 4.1999 134.1 4.4999C134.6 4.8999 134.95 5.2999 135.15 5.6999C135.35 6.0999 135.35 6.3999 135.15 6.5999C135.05 6.5999 134.5 6.2499 133.5 5.5499C133.2 5.3499 132.7 5.1499 132 4.9499C131.3 4.7499 130.7 4.6499 130.2 4.6499C129.4 4.6499 128.55 4.7999 127.65 5.0999C126.75 5.3999 126 5.7999 125.4 6.2999C124.6 6.9999 123.65 7.8999 122.55 8.9999C121.55 10.0999 120.5 11.2999 119.4 12.5999C118.3 13.7999 117.2 15.0999 116.1 16.4999C115.1 17.8999 114.15 19.1999 113.25 20.3999C108.55 26.8999 103.75 33.8499 98.8501 41.2499C94.0501 48.5499 89.5001 55.6999 85.2001 62.6999C87.8001 62.4999 90.6501 61.6499 93.7501 60.1499C95.3501 59.3499 96.9001 58.2999 98.4001 56.9999C99.9001 55.6999 101.15 54.5999 102.15 53.6999C102.65 53.1999 103.15 52.7499 103.65 52.3499C104.15 51.9499 104.5 51.8499 104.7 52.0499C105 52.3499 104.45 53.1999 103.05 54.5999C101.95 55.5999 100.65 56.7499 99.1501 58.0499C97.7501 59.2499 96.1001 60.3499 94.2001 61.3499C92.6001 62.1499 90.9001 62.7999 89.1001 63.2999C87.4001 63.7999 85.8501 64.0999 84.4501 64.1999C83.3501 65.2999 82.3501 66.1499 81.4501 66.7499C80.6501 67.3499 79.7001 67.7499 78.6001 67.9499C77.5001 68.1499 76.6501 68.1999 76.0501 68.0999C75.5501 67.9999 75.2001 67.7999 75.0001 67.4999C74.8001 67.2999 74.7501 67.0499 74.8501 66.7499C74.9501 66.3499 75.0501 66.0499 75.1501 65.8499C75.3501 65.3499 75.5501 64.9499 75.7501 64.6499C75.9501 64.2499 76.1501 63.8999 76.3501 63.5999C74.9501 63.3999 73.2501 63.0499 71.2501 62.5499C69.2501 61.9499 67.6501 61.3999 66.4501 60.8999C64.8501 60.2999 63.2001 59.4999 61.5001 58.4999C59.9001 57.4999 58.6001 56.5499 57.6001 55.6499C56.2001 56.6499 54.3501 57.8999 52.0501 59.3999C49.7501 60.7999 47.1001 62.2499 44.1001 63.7499C41.2001 65.1499 38.0501 66.3499 34.6501 67.3499C31.3501 68.4499 27.9501 69.1499 24.4501 69.4499C21.5501 69.6499 18.8001 69.5499 16.2001 69.1499C13.6001 68.8499 11.3001 68.2499 9.3001 67.3499C7.4001 66.4499 5.8501 65.2999 4.6501 63.8999C3.5501 62.3999 3.0001 60.5999 3.0001 58.4999V58.3499ZM83.7001 52.0499C84.5001 50.6499 85.6501 48.8499 87.1501 46.6499C88.6501 44.4499 90.2501 42.1499 91.9501 39.7499C93.6501 37.2499 95.3501 34.7999 97.0501 32.3999C98.8501 29.9999 100.4 27.9499 101.7 26.2499C106.3 20.2499 110.6 15.5499 114.6 12.1499C118.6 8.7499 122.35 6.1999 125.85 4.4999V4.3499C124.15 4.5499 122 5.1499 119.4 6.1499C116.8 7.0499 114.2 8.1999 111.6 9.5999C108.1 11.5999 104.6 13.9999 101.1 16.7999C97.6001 19.5999 94.4001 22.2999 91.5001 24.8999C89.9001 26.3999 88.3001 27.9499 86.7001 29.5499C85.1001 31.1499 83.5501 32.6499 82.0501 34.0499C82.4501 34.8499 82.8001 36.1499 83.1001 37.9499C83.5001 39.6499 83.8001 41.5499 84.0001 43.6499C84.2001 46.4499 84.0501 49.2499 83.5501 52.0499H83.7001ZM65.7001 23.9999C63.8001 23.9999 62.1001 24.3999 60.6001 25.1999C59.1001 25.9999 57.8001 27.0499 56.7001 28.3499C55.7001 29.5499 54.9001 30.9999 54.3001 32.6999C53.8001 34.2999 53.5001 35.9999 53.4001 37.7999C53.3001 40.8999 53.8501 43.8499 55.0501 46.6499C56.2501 49.4499 57.3501 51.4499 58.3501 52.6499C59.8501 51.3499 61.5501 49.9499 63.4501 48.4499C65.3501 46.8499 67.3001 45.1499 69.3001 43.3499C72.9001 40.2499 76.4501 36.9999 79.9501 33.5999C78.4501 30.7999 76.5001 28.4999 74.1001 26.6999C71.7001 24.8999 68.9501 23.9999 65.8501 23.9999H65.7001ZM59.4001 54.1499C60.2001 55.0499 61.3501 55.9499 62.8501 56.8499C64.3501 57.7499 65.8001 58.5499 67.2001 59.2499C68.4001 59.7499 69.9501 60.2999 71.8501 60.8999C73.8501 61.4999 75.5501 61.8999 76.9501 62.0999C77.2501 61.5999 77.6001 60.9999 78.0001 60.2999C78.5001 59.4999 78.9501 58.7499 79.3501 58.0499C79.8501 57.3499 80.3001 56.7499 80.7001 56.2499C81.1001 55.6499 81.3501 55.1999 81.4501 54.8999C81.9501 53.7999 82.2501 52.2499 82.3501 50.2499C82.5501 48.2499 82.5501 46.0999 82.3501 43.7999C82.1501 42.1999 81.9001 40.6499 81.6001 39.1499C81.4001 37.6499 81.0501 36.3499 80.5501 35.2499C78.7501 36.9499 77.0001 38.5999 75.3001 40.1999C73.6001 41.7999 71.9001 43.2999 70.2001 44.6999C68.2001 46.4999 66.3001 48.1499 64.5001 49.6499C62.8001 51.1499 61.1001 52.5999 59.4001 53.9999V54.1499Z" fill="url(#paint0_linear_2611_715)"/>
<path d="M5.4001 51.8999L7.5847 53.956V53.956L5.4001 51.8999ZM10.8001 49.1999L10.9499 52.1962L11.0505 52.1911L11.1506 52.1794L10.8001 49.1999ZM14.8501 50.3999L12.7288 52.5212L12.7846 52.577L12.8432 52.6298L14.8501 50.3999ZM16.3501 53.8499L19.3378 54.1215L19.3501 53.986V53.8499H16.3501ZM15.3001 56.5499L13.0223 54.5975L12.936 54.6982L12.8589 54.8062L15.3001 56.5499ZM12.9001 58.7999L14.4901 61.3439L14.5794 61.2881L14.6646 61.2261L12.9001 58.7999ZM10.8001 60.4499L8.67878 58.3286L8.58255 58.4248L8.49543 58.5294L10.8001 60.4499ZM10.2001 62.5499H13.2001V62.3631L13.1769 62.1778L10.2001 62.5499ZM13.8001 66.5999L12.5501 69.3271L12.6173 69.3579L12.6859 69.3853L13.8001 66.5999ZM24.9001 67.4999L25.1442 70.49L25.1765 70.4873L25.2088 70.484L24.9001 67.4999ZM33.4501 65.8499L34.2743 68.7345L34.3069 68.7252L34.3393 68.7151L33.4501 65.8499ZM41.7001 62.6999L40.4817 59.9585L40.4622 59.9671L40.4429 59.976L41.7001 62.6999ZM49.3501 58.7999L50.8617 61.3912L50.9013 61.3682L50.9401 61.3439L49.3501 58.7999ZM56.1001 54.4499L57.7642 56.9461L61.0592 54.7494L58.0525 52.1721L56.1001 54.4499ZM53.5501 51.8999L51.1501 53.6999L51.235 53.8132L51.3303 53.9179L53.5501 51.8999ZM50.8501 47.8499L48.203 49.2617L48.2387 49.3285L48.2776 49.3934L50.8501 47.8499ZM48.7501 43.0499L45.904 43.9986L45.9124 44.0235L45.9211 44.0484L48.7501 43.0499ZM47.8501 37.4999L44.8508 37.4333L44.8501 37.4666V37.4999H47.8501ZM52.8001 26.2499L54.8519 28.4385L54.8698 28.4217L54.8875 28.4046L52.8001 26.2499ZM65.7001 21.7499L65.8499 18.7536L65.8028 18.7513L65.7556 18.7504L65.7001 21.7499ZM71.2501 23.0999L69.9727 25.8144L70.0395 25.8458L70.1078 25.8739L71.2501 23.0999ZM75.7501 25.7999L73.8123 28.0901L73.9062 28.1696L74.0064 28.2411L75.7501 25.7999ZM79.2001 29.2499L76.7335 30.9575L76.8097 31.0676L76.8954 31.1705L79.2001 29.2499ZM81.3001 32.5499L78.5147 33.6641L80.2044 37.8883L83.4214 34.6712L81.3001 32.5499ZM84.6001 29.3999L86.6181 31.6197L86.6709 31.5717L86.7214 31.5212L84.6001 29.3999ZM87.6001 26.5499L89.5932 28.7921L89.6001 28.786L89.607 28.7798L87.6001 26.5499ZM99.3001 16.4999L101.196 18.8245L101.203 18.8191L99.3001 16.4999ZM110.85 8.6999L112.247 11.3547L112.273 11.3409L112.299 11.3266L110.85 8.6999ZM119.85 4.6499L118.847 1.82262V1.82262L119.85 4.6499ZM132.15 3.5999L130.808 6.28318L130.999 6.37853L131.201 6.44595L132.15 3.5999ZM134.1 4.4999L135.974 2.15729L135.938 2.12802L135.9 2.09991L134.1 4.4999ZM135.15 5.6999L137.833 4.35827L137.833 4.35824L135.15 5.6999ZM135.15 6.5999V9.5999H136.393L137.271 8.72121L135.15 6.5999ZM133.5 5.5499L135.22 3.09221L135.193 3.07266L135.164 3.05376L133.5 5.5499ZM127.65 5.0999L126.701 2.25385L126.701 2.25385L127.65 5.0999ZM125.4 6.2999L123.48 3.99523L123.452 4.01837L123.425 4.04218L125.4 6.2999ZM122.55 8.9999L120.429 6.87858L120.378 6.92906L120.33 6.98188L122.55 8.9999ZM119.4 12.5999L121.612 14.6271L121.652 14.5832L121.69 14.5377L119.4 12.5999ZM116.1 16.4999L113.741 14.6464L113.699 14.7004L113.659 14.7562L116.1 16.4999ZM113.25 20.3999L110.85 18.5999L110.834 18.6208L110.819 18.6421L113.25 20.3999ZM98.8501 41.2499L96.3487 39.5936L96.3434 39.6017L98.8501 41.2499ZM85.2001 62.6999L82.6439 61.1296L79.5647 66.1423L85.4302 65.6911L85.2001 62.6999ZM93.7501 60.1499L95.0568 62.8504L95.0743 62.8419L95.0918 62.8332L93.7501 60.1499ZM98.4001 56.9999L96.4353 54.7328H96.4353L98.4001 56.9999ZM102.15 53.6999L104.157 55.9298L104.216 55.877L104.271 55.8212L102.15 53.6999ZM104.7 52.0499L106.821 49.9286L106.821 49.9286L104.7 52.0499ZM103.05 54.5999L105.068 56.8197L105.121 56.7717L105.171 56.7212L103.05 54.5999ZM99.1501 58.0499L101.102 60.3277L101.109 60.3223L101.115 60.317L99.1501 58.0499ZM94.2001 61.3499L95.5417 64.0332L95.5697 64.0192L95.5973 64.0047L94.2001 61.3499ZM89.1001 63.2999L88.2972 60.4093L88.2753 60.4154L88.2536 60.4218L89.1001 63.2999ZM84.4501 64.1999L84.2364 61.2075L83.1201 61.2873L82.3288 62.0786L84.4501 64.1999ZM81.4501 66.7499L79.786 64.2538L79.7167 64.2999L79.6501 64.3499L81.4501 66.7499ZM78.6001 67.9499L79.1368 70.9015V70.9015L78.6001 67.9499ZM76.0501 68.0999L75.4618 71.0416L75.5092 71.0511L75.5569 71.0591L76.0501 68.0999ZM75.0001 67.4999L77.4963 65.8358L77.3315 65.5886L77.1214 65.3786L75.0001 67.4999ZM74.8501 66.7499L77.6962 67.6986L77.7326 67.5893L77.7605 67.4775L74.8501 66.7499ZM75.1501 65.8499L77.8334 67.1915L77.8892 67.0799L77.9355 66.9641L75.1501 65.8499ZM75.7501 64.6499L78.2462 66.314L78.3499 66.1586L78.4334 65.9915L75.7501 64.6499ZM76.3501 63.5999L78.8462 65.264L81.4868 61.3033L76.7744 60.6301L76.3501 63.5999ZM71.2501 62.5499L70.3881 65.4234L70.4548 65.4434L70.5225 65.4603L71.2501 62.5499ZM66.4501 60.8999L67.604 58.1307L67.5541 58.1099L67.5035 58.0909L66.4501 60.8999ZM61.5001 58.4999L59.9101 61.0439L59.9443 61.0653L59.979 61.0857L61.5001 58.4999ZM57.6001 55.6499L59.607 53.42L57.8165 51.8086L55.8564 53.2087L57.6001 55.6499ZM52.0501 59.3999L53.6099 61.9625L53.6498 61.9382L53.6889 61.9127L52.0501 59.3999ZM44.1001 63.7499L45.4043 66.4516L45.4231 66.4425L45.4417 66.4332L44.1001 63.7499ZM34.6501 67.3499L33.8036 64.4718L33.7522 64.4869L33.7014 64.5039L34.6501 67.3499ZM24.4501 69.4499L24.6565 72.4428L24.6814 72.4411L24.7063 72.4389L24.4501 69.4499ZM16.2001 69.1499L16.6563 66.1848L16.6003 66.1762L16.544 66.1697L16.2001 69.1499ZM9.3001 67.3499L8.01584 70.0611L8.0423 70.0737L8.069 70.0857L9.3001 67.3499ZM4.6501 63.8999L2.23088 65.674L2.29822 65.7658L2.37233 65.8523L4.6501 63.8999ZM83.7001 52.0499V55.0499H85.4411L86.3048 53.5383L83.7001 52.0499ZM91.9501 39.7499L94.3982 41.484L94.4147 41.4605L94.4309 41.4368L91.9501 39.7499ZM97.0501 32.3999L94.6501 30.5999L94.6256 30.6325L94.602 30.6659L97.0501 32.3999ZM101.7 26.2499L99.3193 24.4246L99.317 24.4275L101.7 26.2499ZM114.6 12.1499L116.543 14.4357H116.543L114.6 12.1499ZM125.85 4.4999L127.161 7.19843L128.85 6.37791V4.4999H125.85ZM125.85 4.3499H128.85V0.976265L125.5 1.37045L125.85 4.3499ZM119.4 6.1499L120.381 8.98486L120.43 8.9682L120.477 8.94994L119.4 6.1499ZM111.6 9.5999L110.178 6.95848L110.145 6.97641L110.112 6.99517L111.6 9.5999ZM101.1 16.7999L99.226 14.4573V14.4573L101.1 16.7999ZM91.5001 24.8999L89.4975 22.6662L89.4726 22.6885L89.4483 22.7113L91.5001 24.8999ZM86.7001 29.5499L88.8214 31.6712V31.6712L86.7001 29.5499ZM82.0501 34.0499L80.0032 31.8567L78.3642 33.3864L79.3668 35.3915L82.0501 34.0499ZM83.1001 37.9499L80.1409 38.4431L80.1572 38.5407L80.1798 38.637L83.1001 37.9499ZM84.0001 43.6499L86.9925 43.4362L86.99 43.4008L86.9866 43.3655L84.0001 43.6499ZM83.5501 52.0499L80.5968 51.5225L79.9669 55.0499H83.5501V52.0499ZM60.6001 25.1999L59.1883 22.5528L59.1883 22.5528L60.6001 25.1999ZM56.7001 28.3499L54.4099 26.4121L54.4027 26.4207L54.3954 26.4293L56.7001 28.3499ZM54.3001 32.6999L51.4711 31.7014L51.4529 31.7529L51.4367 31.8051L54.3001 32.6999ZM53.4001 37.7999L50.4047 37.6335L50.4028 37.6683L50.4017 37.7032L53.4001 37.7999ZM55.0501 46.6499L57.8075 45.4681V45.4681L55.0501 46.6499ZM58.3501 52.6499L56.0454 54.5705L58.0035 56.9202L60.3149 54.917L58.3501 52.6499ZM63.4501 48.4499L65.309 50.8046L65.3462 50.7752L65.3825 50.7446L63.4501 48.4499ZM69.3001 43.3499L67.3425 41.0766L67.3176 41.098L67.2932 41.12L69.3001 43.3499ZM79.9501 33.5999L82.0405 35.7517L83.6622 34.1763L82.5945 32.1832L79.9501 33.5999ZM59.4001 54.1499H56.4001V55.2905L57.1579 56.143L59.4001 54.1499ZM62.8501 56.8499L61.3066 59.4224H61.3066L62.8501 56.8499ZM67.2001 59.2499L65.8585 61.9332L65.9509 61.9794L66.0463 62.0191L67.2001 59.2499ZM71.8501 60.8999L70.9467 63.7607L70.9673 63.7672L70.9881 63.7734L71.8501 60.8999ZM76.9501 62.0999L76.5258 65.0697L78.4977 65.3514L79.5226 63.6434L76.9501 62.0999ZM78.0001 60.2999L75.4561 58.7099L75.4247 58.7601L75.3954 58.8115L78.0001 60.2999ZM79.3501 58.0499L76.9089 56.3062L76.8207 56.4297L76.7454 56.5615L79.3501 58.0499ZM80.7001 56.2499L83.0427 58.124L83.124 58.0223L83.1963 57.914L80.7001 56.2499ZM81.4501 54.8999L78.719 53.6585L78.6538 53.8018L78.604 53.9512L81.4501 54.8999ZM82.3501 50.2499L79.365 49.9514L79.3576 50.0256L79.3538 50.1001L82.3501 50.2499ZM82.3501 43.7999L85.3388 43.54L85.3339 43.4838L85.3269 43.4278L82.3501 43.7999ZM81.6001 39.1499L78.6264 39.5464L78.6393 39.6428L78.6584 39.7383L81.6001 39.1499ZM80.5501 35.2499L83.2812 34.0085L81.5434 30.1853L78.4902 33.0689L80.5501 35.2499ZM75.3001 40.1999L73.244 38.0153L73.244 38.0153L75.3001 40.1999ZM70.2001 44.6999L68.293 42.3841L68.2421 42.426L68.1932 42.47L70.2001 44.6999ZM64.5001 49.6499L62.5795 47.3452L62.547 47.3724L62.5152 47.4004L64.5001 49.6499ZM59.4001 53.9999L57.493 51.6841L56.4001 52.5841V53.9999H59.4001ZM3.0001 58.3499H6.0001C6.0001 56.4198 6.56967 55.0345 7.5847 53.956L5.4001 51.8999L3.2155 49.8438C1.03052 52.1653 9.79006e-05 55.08 9.79006e-05 58.3499H3.0001ZM5.4001 51.8999L7.5847 53.956C8.74795 52.72 9.85182 52.2511 10.9499 52.1962L10.8001 49.1999L10.6503 46.2036C7.74838 46.3487 5.25225 47.6798 3.2155 49.8438L5.4001 51.8999ZM10.8001 49.1999L11.1506 52.1794C12.1518 52.0616 12.5159 52.3084 12.7288 52.5212L14.8501 50.3999L16.9714 48.2786C15.1843 46.4914 12.8484 45.9382 10.4496 46.2205L10.8001 49.1999ZM14.8501 50.3999L12.8432 52.6298C13.1825 52.9352 13.3501 53.2612 13.3501 53.8499H16.3501H19.3501C19.3501 51.6386 18.5177 49.6646 16.857 48.17L14.8501 50.3999ZM16.3501 53.8499L13.3624 53.5783C13.3074 54.1835 13.1419 54.458 13.0223 54.5975L15.3001 56.5499L17.5779 58.5023C18.6583 57.2418 19.1928 55.7163 19.3378 54.1215L16.3501 53.8499ZM15.3001 56.5499L12.8589 54.8062C12.6226 55.137 12.1079 55.6665 11.1356 56.3737L12.9001 58.7999L14.6646 61.2261C15.8923 60.3333 16.9776 59.3629 17.7413 58.2936L15.3001 56.5499ZM12.9001 58.7999L11.3101 56.2559C10.3387 56.863 9.45603 57.5513 8.67878 58.3286L10.8001 60.4499L12.9214 62.5712C13.3442 62.1485 13.8615 61.7368 14.4901 61.3439L12.9001 58.7999ZM10.8001 60.4499L8.49543 58.5294C7.44452 59.7904 7.02398 61.3277 7.22327 62.922L10.2001 62.5499L13.1769 62.1778C13.1739 62.1538 13.1758 62.1519 13.1747 62.1682C13.1736 62.1853 13.1698 62.2138 13.1597 62.2491C13.1495 62.2845 13.1362 62.3161 13.1228 62.341C13.1097 62.3653 13.101 62.375 13.1048 62.3705L10.8001 60.4499ZM10.2001 62.5499H7.2001C7.2001 65.9719 9.83748 68.0838 12.5501 69.3271L13.8001 66.5999L15.0501 63.8727C14.068 63.4226 13.5691 63.0244 13.3423 62.7693C13.2389 62.6529 13.2094 62.586 13.204 62.5726C13.2007 62.5646 13.2001 62.5643 13.2001 62.5499H10.2001ZM13.8001 66.5999L12.6859 69.3853C15.8402 70.647 20.1035 70.9014 25.1442 70.49L24.9001 67.4999L24.656 64.5098C19.8967 64.8984 16.76 64.5528 14.9143 63.8145L13.8001 66.5999ZM24.9001 67.4999L25.2088 70.484C28.283 70.166 31.3055 69.5827 34.2743 68.7345L33.4501 65.8499L32.6259 62.9653C29.9947 63.7171 27.3172 64.2338 24.5914 64.5158L24.9001 67.4999ZM33.4501 65.8499L34.3393 68.7151C37.3574 67.7784 40.2309 66.6821 42.9573 65.4238L41.7001 62.6999L40.4429 59.976C37.9693 61.1177 35.3428 62.1214 32.5609 62.9847L33.4501 65.8499ZM41.7001 62.6999L42.9185 65.4413C45.7126 64.1995 48.361 62.85 50.8617 61.3912L49.3501 58.7999L47.8385 56.2086C45.5392 57.5498 43.0876 58.8003 40.4817 59.9585L41.7001 62.6999ZM49.3501 58.7999L50.9401 61.3439C53.3621 59.8301 55.637 58.3642 57.7642 56.9461L56.1001 54.4499L54.436 51.9538C52.3632 53.3356 50.1381 54.7697 47.7601 56.2559L49.3501 58.7999ZM56.1001 54.4499L58.0525 52.1721C57.4861 51.6867 56.7302 50.9382 55.7699 49.8819L53.5501 51.8999L51.3303 53.9179C52.37 55.0616 53.3141 56.0131 54.1477 56.7277L56.1001 54.4499ZM53.5501 51.8999L55.9501 50.0999C55.1211 48.9946 54.278 47.7321 53.4226 46.3064L50.8501 47.8499L48.2776 49.3934C49.2222 50.9677 50.1791 52.4052 51.1501 53.6999L53.5501 51.8999ZM50.8501 47.8499L53.4972 46.4381C52.7722 45.0789 52.1319 43.6178 51.5791 42.0514L48.7501 43.0499L45.9211 44.0484C46.5683 45.882 47.328 47.6209 48.203 49.2617L50.8501 47.8499ZM48.7501 43.0499L51.5961 42.1012C51.0983 40.6076 50.8501 39.0779 50.8501 37.4999H47.8501H44.8501C44.8501 39.7219 45.2019 41.8923 45.904 43.9986L48.7501 43.0499ZM47.8501 37.4999L50.8494 37.5666C50.932 33.8487 52.257 30.8712 54.8519 28.4385L52.8001 26.2499L50.7483 24.0613C46.9431 27.6286 44.9682 32.1511 44.8508 37.4333L47.8501 37.4999ZM52.8001 26.2499L54.8875 28.4046C57.396 25.9745 60.8619 24.6608 65.6446 24.7494L65.7001 21.7499L65.7556 18.7504C59.7383 18.639 54.6042 20.3253 50.7127 24.0952L52.8001 26.2499ZM65.7001 21.7499L65.5503 24.7462C67.1857 24.8279 68.6494 25.1916 69.9727 25.8144L71.2501 23.0999L72.5275 20.3854C70.4508 19.4082 68.2145 18.8719 65.8499 18.7536L65.7001 21.7499ZM71.2501 23.0999L70.1078 25.8739C71.542 26.4645 72.7689 27.2072 73.8123 28.0901L75.7501 25.7999L77.6879 23.5097C76.1313 22.1926 74.3582 21.1353 72.3923 20.3259L71.2501 23.0999ZM75.7501 25.7999L74.0064 28.2411C75.1498 29.0578 76.047 29.9659 76.7335 30.9575L79.2001 29.2499L81.6667 27.5423C80.5532 25.9339 79.1505 24.542 77.4938 23.3587L75.7501 25.7999ZM79.2001 29.2499L76.8954 31.1705C77.7762 32.2274 78.2714 33.0558 78.5147 33.6641L81.3001 32.5499L84.0855 31.4357C83.5288 30.044 82.624 28.6724 81.5048 27.3293L79.2001 29.2499ZM81.3001 32.5499L83.4214 34.6712C84.4893 33.6033 85.5549 32.5863 86.6181 31.6197L84.6001 29.3999L82.5821 27.1801C81.4453 28.2135 80.3109 29.2965 79.1788 30.4286L81.3001 32.5499ZM84.6001 29.3999L86.7214 31.5212C87.7911 30.4515 88.7476 29.5438 89.5932 28.7921L87.6001 26.5499L85.607 24.3077C84.6526 25.156 83.6091 26.1483 82.4788 27.2786L84.6001 29.3999ZM87.6001 26.5499L89.607 28.7798C93.5744 25.2092 97.4375 21.891 101.196 18.8245L99.3001 16.4999L97.4037 14.1753C93.5627 17.3088 89.6258 20.6906 85.5932 24.32L87.6001 26.5499ZM99.3001 16.4999L101.203 18.8191C104.973 15.7261 108.655 13.2455 112.247 11.3547L110.85 8.6999L109.453 6.04515C105.445 8.15429 101.428 10.8737 97.3972 14.1807L99.3001 16.4999ZM110.85 8.6999L112.299 11.3266C115.057 9.80496 117.908 8.52221 120.853 7.47718L119.85 4.6499L118.847 1.82262C115.592 2.9776 112.443 4.39484 109.401 6.07317L110.85 8.6999ZM119.85 4.6499L120.853 7.47718C123.674 6.47632 126.334 5.9999 128.85 5.9999V2.9999V-9.91821e-05C125.566 -9.91821e-05 122.226 0.623474 118.847 1.82262L119.85 4.6499ZM128.85 2.9999V5.9999C130.021 5.9999 130.595 6.17643 130.808 6.28318L132.15 3.5999L133.492 0.916618C132.105 0.223366 130.479 -9.91821e-05 128.85 -9.91821e-05V2.9999ZM132.15 3.5999L131.201 6.44595C131.578 6.57145 131.857 6.68225 132.055 6.77378C132.263 6.86975 132.324 6.91803 132.3 6.8999L134.1 4.4999L135.9 2.09991C135.105 1.50327 134.082 1.08154 133.099 0.753845L132.15 3.5999ZM134.1 4.4999L132.226 6.84251C132.365 6.95338 132.442 7.03265 132.48 7.07542C132.517 7.11809 132.5 7.10824 132.467 7.04156L135.15 5.6999L137.833 4.35824C137.374 3.43991 136.677 2.71992 135.974 2.15729L134.1 4.4999ZM135.15 5.6999L132.467 7.04152C132.452 7.01256 132.3 6.71277 132.3 6.2249C132.3 5.63283 132.529 4.97799 133.029 4.4786L135.15 6.5999L137.271 8.72121C138.881 7.11211 138.218 5.1278 137.833 4.35827L135.15 5.6999ZM135.15 6.5999V3.5999C135.358 3.5999 135.528 3.62182 135.644 3.64166C135.764 3.66213 135.863 3.68679 135.935 3.7069C136.074 3.7459 136.179 3.78694 136.234 3.80945C136.342 3.85408 136.41 3.89122 136.413 3.89286C136.426 3.9001 136.388 3.8795 136.273 3.80642C136.054 3.66721 135.71 3.43464 135.22 3.09221L133.5 5.5499L131.78 8.0076C132.291 8.36517 132.721 8.65759 133.052 8.86839C133.212 8.9703 133.392 9.08094 133.568 9.17569C133.653 9.22108 133.788 9.29103 133.949 9.35754C133.988 9.37348 134.491 9.5999 135.15 9.5999V6.5999ZM133.5 5.5499L135.164 3.05376C134.459 2.58337 133.583 2.28218 132.824 2.06533L132 4.9499L131.176 7.83447C131.459 7.91544 131.657 7.98383 131.786 8.03533C131.928 8.09202 131.921 8.10266 131.836 8.04604L133.5 5.5499ZM132 4.9499L132.824 2.06533C131.967 1.82027 131.074 1.6499 130.2 1.6499V4.6499V7.6499C130.326 7.6499 130.634 7.67953 131.176 7.83447L132 4.9499ZM130.2 4.6499V1.6499C129.024 1.6499 127.852 1.87032 126.701 2.25385L127.65 5.0999L128.599 7.94595C129.248 7.72948 129.776 7.6499 130.2 7.6499V4.6499ZM127.65 5.0999L126.701 2.25385C125.521 2.64746 124.421 3.21042 123.48 3.99523L125.4 6.2999L127.321 8.60457C127.579 8.38939 127.98 8.15234 128.599 7.94595L127.65 5.0999ZM125.4 6.2999L123.425 4.04218C122.557 4.80097 121.556 5.7509 120.429 6.87858L122.55 8.9999L124.671 11.1212C125.744 10.0489 126.643 9.19883 127.376 8.55762L125.4 6.2999ZM122.55 8.9999L120.33 6.98188C119.303 8.11164 118.23 9.33874 117.11 10.6621L119.4 12.5999L121.69 14.5377C122.771 13.2611 123.797 12.0882 124.77 11.0179L122.55 8.9999ZM119.4 12.5999L117.189 10.5727C116.033 11.8336 114.884 13.1922 113.741 14.6464L116.1 16.4999L118.459 18.3534C119.516 17.0076 120.567 15.7662 121.612 14.6271L119.4 12.5999ZM116.1 16.4999L113.659 14.7562C112.671 16.1399 111.734 17.421 110.85 18.5999L113.25 20.3999L115.65 22.1999C116.566 20.9788 117.53 19.6599 118.541 18.2436L116.1 16.4999ZM113.25 20.3999L110.819 18.6421C106.093 25.1787 101.269 32.1628 96.3488 39.5936L98.8501 41.2499L101.351 42.9062C106.231 35.537 111.008 28.6211 115.681 22.1577L113.25 20.3999ZM98.8501 41.2499L96.3434 39.6017C91.5276 46.9258 86.961 54.1018 82.6439 61.1296L85.2001 62.6999L87.7563 64.2702C92.0392 57.298 96.5726 50.174 101.357 42.8981L98.8501 41.2499ZM85.2001 62.6999L85.4302 65.6911C88.5028 65.4547 91.7216 64.4642 95.0568 62.8504L93.7501 60.1499L92.4434 57.4494C89.5786 58.8356 87.0974 59.5451 84.97 59.7087L85.2001 62.6999ZM93.7501 60.1499L95.0918 62.8332C96.939 61.9095 98.6958 60.7135 100.365 59.267L98.4001 56.9999L96.4353 54.7328C95.1044 55.8863 93.7612 56.7903 92.4085 57.4666L93.7501 60.1499ZM98.4001 56.9999L100.365 59.267C101.873 57.9599 103.138 56.8467 104.157 55.9298L102.15 53.6999L100.143 51.47C99.162 52.3531 97.9271 53.4399 96.4353 54.7328L98.4001 56.9999ZM102.15 53.6999L104.271 55.8212C104.701 55.3915 105.119 55.0167 105.524 54.6925L103.65 52.3499L101.776 50.0073C101.181 50.4831 100.599 51.0083 100.029 51.5786L102.15 53.6999ZM103.65 52.3499L105.524 54.6925C105.664 54.581 105.506 54.7469 105.112 54.8595C104.886 54.9241 104.485 54.9986 103.985 54.9078C103.446 54.8097 102.955 54.5472 102.579 54.1712L104.7 52.0499L106.821 49.9286C105.725 48.8317 104.337 48.8408 103.463 49.0903C102.719 49.3029 102.137 49.7188 101.776 50.0073L103.65 52.3499ZM104.7 52.0499L102.579 54.1712C102.175 53.7677 101.93 53.271 101.831 52.7765C101.74 52.3193 101.789 51.9499 101.834 51.7407C101.916 51.3654 102.056 51.1872 101.994 51.2826C101.896 51.4333 101.592 51.8149 100.929 52.4786L103.05 54.5999L105.171 56.7212C105.908 55.9849 106.579 55.2415 107.031 54.5422C107.245 54.2126 107.553 53.6781 107.697 53.0153C107.853 52.2985 107.879 50.9865 106.821 49.9286L104.7 52.0499ZM103.05 54.5999L101.032 52.3801C99.9543 53.3599 98.6729 54.4936 97.1853 55.7828L99.1501 58.0499L101.115 60.317C102.627 59.0062 103.946 57.8399 105.068 56.8197L103.05 54.5999ZM99.1501 58.0499L97.1977 55.7721C95.9932 56.8046 94.5359 57.783 92.8029 58.6951L94.2001 61.3499L95.5973 64.0047C97.6643 62.9168 99.507 61.6952 101.102 60.3277L99.1501 58.0499ZM94.2001 61.3499L92.8585 58.6666C91.4384 59.3766 89.9196 59.9587 88.2972 60.4093L89.1001 63.2999L89.903 66.1905C91.8806 65.6411 93.7618 64.9232 95.5417 64.0332L94.2001 61.3499ZM89.1001 63.2999L88.2536 60.4218C86.7088 60.8762 85.3747 61.1262 84.2364 61.2075L84.4501 64.1999L84.6638 67.1923C86.3255 67.0736 88.0914 66.7236 89.9466 66.178L89.1001 63.2999ZM84.4501 64.1999L82.3288 62.0786C81.3134 63.094 80.4675 63.7994 79.786 64.2538L81.4501 66.7499L83.1142 69.2461C84.2327 68.5004 85.3868 67.5058 86.5714 66.3212L84.4501 64.1999ZM81.4501 66.7499L79.6501 64.3499C79.2647 64.6389 78.7599 64.8717 78.0634 64.9983L78.6001 67.9499L79.1368 70.9015C80.6403 70.6281 82.0355 70.0609 83.2501 69.1499L81.4501 66.7499ZM78.6001 67.9499L78.0634 64.9983C77.5981 65.0829 77.2349 65.1265 76.9614 65.1426C76.8265 65.1505 76.7241 65.1511 76.6504 65.1486C76.5757 65.146 76.5426 65.1406 76.5433 65.1407L76.0501 68.0999L75.5569 71.0591C76.6735 71.2452 77.932 71.1206 79.1368 70.9015L78.6001 67.9499ZM76.0501 68.0999L76.6385 65.1582C76.5919 65.1488 77.0993 65.2403 77.4963 65.8358L75.0001 67.4999L72.5039 69.164C73.3009 70.3595 74.5083 70.851 75.4618 71.0416L76.0501 68.0999ZM75.0001 67.4999L77.1214 65.3786C77.3926 65.6498 77.6506 66.0556 77.7543 66.574C77.8536 67.0704 77.772 67.4711 77.6962 67.6986L74.8501 66.7499L72.004 65.8012C71.8282 66.3287 71.7216 67.0045 71.8709 67.7508C72.0246 68.5192 72.4076 69.15 72.8788 69.6212L75.0001 67.4999ZM74.8501 66.7499L77.7605 67.4775C77.7971 67.3311 77.8264 67.2328 77.8461 67.1736C77.8557 67.145 77.8607 67.1324 77.8605 67.1328C77.8603 67.1334 77.8582 67.1386 77.854 67.148C77.8499 67.1573 77.8431 67.1721 77.8334 67.1915L75.1501 65.8499L72.4668 64.5083C72.219 65.0038 72.0563 65.5559 71.9397 66.0223L74.8501 66.7499ZM75.1501 65.8499L77.9355 66.9641C78.0922 66.5723 78.2029 66.3791 78.2462 66.314L75.7501 64.6499L73.254 62.9858C72.8973 63.5207 72.608 64.1275 72.3647 64.7357L75.1501 65.8499ZM75.7501 64.6499L78.4334 65.9915C78.5904 65.6776 78.7293 65.4394 78.8462 65.264L76.3501 63.5999L73.854 61.9358C73.5709 62.3604 73.3098 62.8222 73.0668 63.3083L75.7501 64.6499ZM76.3501 63.5999L76.7744 60.6301C75.511 60.4496 73.9185 60.1247 71.9777 59.6395L71.2501 62.5499L70.5225 65.4603C72.5817 65.9751 74.3892 66.3502 75.9258 66.5697L76.3501 63.5999ZM71.2501 62.5499L72.1121 59.6764C70.1596 59.0907 68.6692 58.5745 67.604 58.1307L66.4501 60.8999L65.2963 63.6691C66.631 64.2253 68.3406 64.8091 70.3881 65.4234L71.2501 62.5499ZM66.4501 60.8999L67.5035 58.0909C66.088 57.5601 64.5942 56.8394 63.0212 55.9141L61.5001 58.4999L59.979 61.0857C61.806 62.1604 63.6122 63.0397 65.3967 63.7089L66.4501 60.8999ZM61.5001 58.4999L63.0901 55.9559C61.584 55.0146 60.4374 54.1674 59.607 53.42L57.6001 55.6499L55.5932 57.8798C56.7628 58.9324 58.2163 59.9852 59.9101 61.0439L61.5001 58.4999ZM57.6001 55.6499L55.8564 53.2087C54.5049 54.1741 52.694 55.3984 50.4113 56.8871L52.0501 59.3999L53.6889 61.9127C56.0062 60.4014 57.8953 59.1257 59.3438 58.0911L57.6001 55.6499ZM52.0501 59.3999L50.4903 56.8373C48.276 58.1851 45.7013 59.5952 42.7585 61.0666L44.1001 63.7499L45.4417 66.4332C48.4989 64.9046 51.2242 63.4147 53.6099 61.9625L52.0501 59.3999ZM44.1001 63.7499L42.7959 61.0482C40.0572 62.3703 37.0619 63.5135 33.8036 64.4718L34.6501 67.3499L35.4966 70.228C39.0383 69.1863 42.343 67.9295 45.4043 66.4516L44.1001 63.7499ZM34.6501 67.3499L33.7014 64.5039C30.628 65.5283 27.4606 66.1809 24.1939 66.4609L24.4501 69.4499L24.7063 72.4389C28.4396 72.1189 32.0722 71.3715 35.5988 70.196L34.6501 67.3499ZM24.4501 69.4499L24.2437 66.457C21.5421 66.6433 19.0156 66.5478 16.6563 66.1848L16.2001 69.1499L15.7439 72.115C18.5846 72.552 21.5581 72.6565 24.6565 72.4428L24.4501 69.4499ZM16.2001 69.1499L16.544 66.1697C14.1931 65.8984 12.2015 65.3658 10.5312 64.6141L9.3001 67.3499L8.069 70.0857C10.3987 71.134 13.0071 71.8014 15.8562 72.1301L16.2001 69.1499ZM9.3001 67.3499L10.5844 64.6387C9.01189 63.8938 7.81774 62.9857 6.92787 61.9475L4.6501 63.8999L2.37233 65.8523C3.88245 67.6141 5.78831 69.006 8.01584 70.0611L9.3001 67.3499ZM4.6501 63.8999L7.06931 62.1258C6.39451 61.2056 6.0001 60.0478 6.0001 58.4999H3.0001H9.79006e-05C9.79006e-05 61.152 0.70569 63.5942 2.23088 65.674L4.6501 63.8999ZM3.0001 58.4999H6.0001V58.3499H3.0001H9.79006e-05V58.4999H3.0001ZM83.7001 52.0499L86.3048 53.5383C87.0485 52.2369 88.1488 50.5106 89.6288 48.3399L87.1501 46.6499L84.6714 44.9599C83.1514 47.1892 81.9517 49.0629 81.0954 50.5615L83.7001 52.0499ZM87.1501 46.6499L89.6288 48.3399C91.1177 46.1561 92.7075 43.8708 94.3982 41.484L91.9501 39.7499L89.502 38.0158C87.7927 40.429 86.1825 42.7437 84.6714 44.9599L87.1501 46.6499ZM91.9501 39.7499L94.4309 41.4368C96.1204 38.9522 97.8095 36.5179 99.4982 34.134L97.0501 32.3999L94.602 30.6659C92.8907 33.0819 91.1798 35.5476 89.4693 38.063L91.9501 39.7499ZM97.0501 32.3999L99.4501 34.1999C101.247 31.8047 102.791 29.7626 104.083 28.0722L101.7 26.2499L99.317 24.4275C98.0096 26.1372 96.4537 28.1951 94.6501 30.5999L97.0501 32.3999ZM101.7 26.2499L104.081 28.0752C108.603 22.1769 112.758 17.6526 116.543 14.4357L114.6 12.1499L112.657 9.86408C108.442 13.4472 103.997 18.3229 99.3193 24.4246L101.7 26.2499ZM114.6 12.1499L116.543 14.4357C120.413 11.1465 123.951 8.75729 127.161 7.19843L125.85 4.4999L124.539 1.80138C120.749 3.64251 116.787 6.35332 112.657 9.86408L114.6 12.1499ZM125.85 4.4999H128.85V4.3499H125.85H122.85V4.4999H125.85ZM125.85 4.3499L125.5 1.37045C123.445 1.61214 121.031 2.30858 118.323 3.34986L119.4 6.1499L120.477 8.94994C122.97 7.99122 124.855 7.48765 126.201 7.32935L125.85 4.3499ZM119.4 6.1499L118.419 3.31494C115.656 4.2712 112.909 5.48777 110.178 6.95848L111.6 9.5999L113.022 12.2413C115.491 10.912 117.944 9.82859 120.381 8.98486L119.4 6.1499ZM111.6 9.5999L110.112 6.99517C106.463 9.08041 102.834 11.5707 99.226 14.4573L101.1 16.7999L102.974 19.1425C106.366 16.4291 109.738 14.1194 113.089 12.2046L111.6 9.5999ZM101.1 16.7999L99.226 14.4573C95.6885 17.2873 92.445 20.0236 89.4975 22.6662L91.5001 24.8999L93.5027 27.1336C96.3553 24.5762 99.5117 21.9125 102.974 19.1425L101.1 16.7999ZM91.5001 24.8999L89.4483 22.7113C87.824 24.234 86.2009 25.8065 84.5788 27.4286L86.7001 29.5499L88.8214 31.6712C90.3993 30.0933 91.9762 28.5658 93.5519 27.0885L91.5001 24.8999ZM86.7001 29.5499L84.5788 27.4286C83.0007 29.0066 81.4755 30.4825 80.0032 31.8567L82.0501 34.0499L84.0971 36.2431C85.6247 34.8173 87.1995 33.2932 88.8214 31.6712L86.7001 29.5499ZM82.0501 34.0499L79.3668 35.3915C79.556 35.7699 79.8501 36.698 80.1409 38.4431L83.1001 37.9499L86.0593 37.4567C85.7501 35.6018 85.3442 33.9299 84.7334 32.7083L82.0501 34.0499ZM83.1001 37.9499L80.1798 38.637C80.543 40.1806 80.824 41.9431 81.0136 43.9343L84.0001 43.6499L86.9866 43.3655C86.7762 41.1567 86.4572 39.1192 86.0203 37.2628L83.1001 37.9499ZM84.0001 43.6499L81.0077 43.8636C81.1898 46.4127 81.0537 48.9637 80.5968 51.5225L83.5501 52.0499L86.5034 52.5773C87.0465 49.5361 87.2104 46.4872 86.9925 43.4362L84.0001 43.6499ZM83.5501 52.0499V55.0499H83.7001V52.0499V49.0499H83.5501V52.0499ZM65.7001 23.9999V20.9999C63.3665 20.9999 61.1719 21.4949 59.1883 22.5528L60.6001 25.1999L62.0119 27.847C63.0283 27.3049 64.2337 26.9999 65.7001 26.9999V23.9999ZM60.6001 25.1999L59.1883 22.5528C57.3527 23.5318 55.7548 24.8227 54.4099 26.4121L56.7001 28.3499L58.9903 30.2877C59.8454 29.2771 60.8475 28.468 62.0119 27.847L60.6001 25.1999ZM56.7001 28.3499L54.3954 26.4293C53.1351 27.9418 52.1717 29.7164 51.4711 31.7014L54.3001 32.6999L57.1291 33.6984C57.6285 32.2834 58.2651 31.158 59.0048 30.2705L56.7001 28.3499ZM54.3001 32.6999L51.4367 31.8051C50.8574 33.6586 50.5174 35.6047 50.4047 37.6335L53.4001 37.7999L56.3955 37.9663C56.4828 36.3951 56.7428 34.9412 57.1635 33.5947L54.3001 32.6999ZM53.4001 37.7999L50.4017 37.7032C50.2878 41.2336 50.9166 44.6208 52.2927 47.8317L55.0501 46.6499L57.8075 45.4681C56.7836 43.079 56.3124 40.5662 56.3985 37.8966L53.4001 37.7999ZM55.0501 46.6499L52.2927 47.8317C53.5202 50.696 54.7576 53.0251 56.0454 54.5705L58.3501 52.6499L60.6548 50.7293C59.9426 49.8748 58.98 48.2038 57.8075 45.4681L55.0501 46.6499ZM58.3501 52.6499L60.3149 54.917C61.7738 53.6526 63.4375 52.2821 65.309 50.8046L63.4501 48.4499L61.5912 46.0953C59.6627 47.6177 57.9264 49.0472 56.3853 50.3828L58.3501 52.6499ZM63.4501 48.4499L65.3825 50.7446C67.3097 49.1218 69.2845 47.4 71.307 45.5798L69.3001 43.3499L67.2932 41.12C65.3157 42.8998 63.3905 44.578 61.5177 46.1552L63.4501 48.4499ZM69.3001 43.3499L71.2577 45.6232C74.9043 42.483 78.4986 39.1924 82.0405 35.7517L79.9501 33.5999L77.8597 31.4481C74.4016 34.8074 70.8959 38.0168 67.3425 41.0766L69.3001 43.3499ZM79.9501 33.5999L82.5945 32.1832C80.9005 29.021 78.6703 26.3775 75.9001 24.2999L74.1001 26.6999L72.3001 29.0999C74.3299 30.6223 75.9997 32.5788 77.3057 35.0166L79.9501 33.5999ZM74.1001 26.6999L75.9001 24.2999C72.9625 22.0967 69.576 20.9999 65.8501 20.9999V23.9999V26.9999C68.3242 26.9999 70.4377 27.7031 72.3001 29.0999L74.1001 26.6999ZM65.8501 23.9999V20.9999H65.7001V23.9999V26.9999H65.8501V23.9999ZM59.4001 54.1499L57.1579 56.143C58.229 57.348 59.6527 58.43 61.3066 59.4224L62.8501 56.8499L64.3936 54.2774C63.0475 53.4698 62.1712 52.7518 61.6423 52.1568L59.4001 54.1499ZM62.8501 56.8499L61.3066 59.4224C62.8649 60.3574 64.3824 61.1951 65.8585 61.9332L67.2001 59.2499L68.5417 56.5666C67.2178 55.9047 65.8353 55.1424 64.3936 54.2774L62.8501 56.8499ZM67.2001 59.2499L66.0463 62.0191C67.3593 62.5662 69.0014 63.1463 70.9467 63.7607L71.8501 60.8999L72.7535 58.0392C70.8988 57.4535 69.4409 56.9336 68.354 56.4807L67.2001 59.2499ZM71.8501 60.8999L70.9881 63.7734C73.0707 64.3982 74.926 64.8412 76.5258 65.0697L76.9501 62.0999L77.3744 59.1301C76.1742 58.9586 74.6295 58.6016 72.7121 58.0264L71.8501 60.8999ZM76.9501 62.0999L79.5226 63.6434C79.8368 63.1198 80.1979 62.5004 80.6048 61.7883L78.0001 60.2999L75.3954 58.8115C75.0023 59.4994 74.6634 60.08 74.3776 60.5564L76.9501 62.0999ZM78.0001 60.2999L80.5441 61.8899C81.0616 61.0619 81.5323 60.2777 81.9548 59.5383L79.3501 58.0499L76.7454 56.5615C76.3679 57.2221 75.9386 57.9379 75.4561 58.7099L78.0001 60.2999ZM79.3501 58.0499L81.7913 59.7936C82.2696 59.124 82.686 58.5699 83.0427 58.124L80.7001 56.2499L78.3575 54.3758C77.9142 54.9299 77.4306 55.5758 76.9089 56.3062L79.3501 58.0499ZM80.7001 56.2499L83.1963 57.914C83.6045 57.3016 84.0582 56.5624 84.2962 55.8486L81.4501 54.8999L78.604 53.9512C78.6245 53.8899 78.6375 53.865 78.6284 53.8844C78.6206 53.9011 78.6013 53.9404 78.5651 54.0055C78.4915 54.1381 78.3753 54.3287 78.204 54.5858L80.7001 56.2499ZM81.4501 54.8999L84.1812 56.1413C84.9071 54.5444 85.2383 52.5618 85.3464 50.3997L82.3501 50.2499L79.3538 50.1001C79.2619 51.938 78.9931 53.0554 78.719 53.6585L81.4501 54.8999ZM82.3501 50.2499L85.3352 50.5484C85.5563 48.3378 85.5527 45.9991 85.3388 43.54L82.3501 43.7999L79.3614 44.0598C79.5475 46.2007 79.5439 48.162 79.365 49.9514L82.3501 50.2499ZM82.3501 43.7999L85.3269 43.4278C85.1184 41.7592 84.8569 40.1369 84.5418 38.5616L81.6001 39.1499L78.6584 39.7383C78.9433 41.1629 79.1818 42.6406 79.3733 44.172L82.3501 43.7999ZM81.6001 39.1499L84.5738 38.7534C84.3442 37.0316 83.9293 35.4344 83.2812 34.0085L80.5501 35.2499L77.819 36.4913C78.1709 37.2654 78.456 38.2682 78.6264 39.5464L81.6001 39.1499ZM80.5501 35.2499L78.4902 33.0689C76.6914 34.7677 74.9427 36.4166 73.244 38.0153L75.3001 40.1999L77.3562 42.3845C79.0575 40.7832 80.8088 39.1321 82.61 37.4309L80.5501 35.2499ZM75.3001 40.1999L73.244 38.0153C71.5893 39.5726 69.9389 41.0286 68.293 42.3841L70.2001 44.6999L72.1072 47.0157C73.8613 45.5712 75.6109 44.0272 77.3562 42.3845L75.3001 40.1999ZM70.2001 44.6999L68.1932 42.47C66.2175 44.2482 64.3464 45.8729 62.5795 47.3452L64.5001 49.6499L66.4207 51.9546C68.2538 50.4269 70.1827 48.7516 72.207 46.9298L70.2001 44.6999ZM64.5001 49.6499L62.5152 47.4004C60.84 48.8785 59.1659 50.3064 57.493 51.6841L59.4001 53.9999L61.3072 56.3157C63.0343 54.8934 64.7602 53.4213 66.485 51.8994L64.5001 49.6499ZM59.4001 53.9999H56.4001V54.1499H59.4001H62.4001V53.9999H59.4001Z" fill="#1A1C28" mask="url(#path-1-outside-1_2611_715)"/>
<defs>
<linearGradient id="paint0_linear_2611_715" x1="-2.31111" y1="31.0054" x2="102.85" y2="62.3999" gradientUnits="userSpaceOnUse">
<stop stop-color="#F6DF75"/>
<stop offset="0.586538" stop-color="#FFB200"/>
<stop offset="0.793269" stop-color="#FBE47C"/>
<stop offset="0.975962" stop-color="#EFD86E"/>
</linearGradient>
</defs>
</svg>
