<svg width="83" height="76" viewBox="0 0 83 76" fill="none" xmlns="http://www.w3.org/2000/svg">
<path d="M29.8501 30.2999C29.8501 28.8999 30.1501 27.4499 30.7501 25.9499C31.3501 24.4499 32.1001 23.0499 33.0001 21.7499C31.1001 20.3499 29.5501 18.6999 28.3501 16.7999C27.1501 14.7999 26.5501 12.6999 26.5501 10.4999C26.5501 7.4999 27.6001 5.0999 29.7001 3.2999C31.9001 1.4999 34.6001 0.4999 37.8001 0.2999C40.7001 0.0998995 43.8501 0.699899 47.2501 2.0999C50.7501 3.4999 53.7001 5.6499 56.1001 8.5499C58.0001 8.2499 59.8501 7.9999 61.6501 7.7999C63.5501 7.5999 65.4001 7.5499 67.2001 7.6499C72.3001 7.8499 76.1501 8.8999 78.7501 10.7999C81.3501 12.5999 82.6501 14.6999 82.6501 17.0999C82.6501 18.7999 82.0501 20.3999 80.8501 21.8999C79.6501 23.2999 78.0001 24.5499 75.9001 25.6499C73.8001 26.7499 71.4001 27.6499 68.7001 28.3499C66.0001 28.9499 63.1501 29.2499 60.1501 29.2499C56.2501 29.2499 52.5001 28.9499 48.9001 28.3499C45.3001 27.6499 42.0501 26.5999 39.1501 25.1999C38.7501 25.6999 38.3001 26.3499 37.8001 27.1499C37.4001 27.9499 37.1001 28.7499 36.9001 29.5499C36.3001 31.2499 36.1501 32.8499 36.4501 34.3499C37.2501 34.1499 38.4001 33.9999 39.9001 33.8999C41.4001 33.7999 42.7001 33.7999 43.8001 33.8999C46.0001 33.9999 47.9001 34.3499 49.5001 34.9499C51.2001 35.4499 52.0001 36.3499 51.9001 37.6499C51.9001 38.7499 51.0001 39.4999 49.2001 39.8999C47.4001 40.2999 45.5501 40.4999 43.6501 40.4999C41.3501 40.4999 39.0001 40.1499 36.6001 39.4499C34.3001 38.7499 32.6501 37.7499 31.6501 36.4499C29.6501 37.2499 27.4001 38.4499 24.9001 40.0499C22.4001 41.6499 20.1001 43.4499 18.0001 45.4499C15.6001 47.7499 13.5501 50.3499 11.8501 53.2499C10.2501 56.1499 9.3501 59.0499 9.1501 61.9499C8.9501 65.4499 10.0001 68.1499 12.3001 70.0499C14.7001 71.9499 17.7501 72.8999 21.4501 72.8999C25.9501 72.8999 29.9501 72.0999 33.4501 70.4999C37.0501 68.8999 40.3501 67.1499 43.3501 65.2499C45.0501 64.0499 46.8001 62.6999 48.6001 61.1999C50.5001 59.5999 51.8001 58.3999 52.5001 57.5999C52.7001 57.3999 52.9501 57.1499 53.2501 56.8499C53.5501 56.5499 53.8501 56.4999 54.1501 56.6999C54.3501 56.8999 54.3501 57.1999 54.1501 57.5999C54.0501 57.8999 53.8501 58.1499 53.5501 58.3499C53.1501 58.7499 52.5501 59.2999 51.7501 59.9999C51.0501 60.6999 50.2501 61.4499 49.3501 62.2499C48.4501 63.0499 47.5001 63.8499 46.5001 64.6499C45.6001 65.3499 44.7501 65.9499 43.9501 66.4499C40.8501 68.6499 37.4001 70.5499 33.6001 72.1499C29.9001 73.8499 25.8001 74.7999 21.3001 74.9999C14.8001 75.1999 9.6001 74.1999 5.7001 71.9999C1.9001 69.8999 9.77367e-05 66.4499 9.77367e-05 61.6499C9.77367e-05 58.9499 0.700098 56.2499 2.1001 53.5499C3.6001 50.8499 5.7001 48.3499 8.4001 46.0499C11.1001 43.6499 14.3501 41.5499 18.1501 39.7499C22.0501 37.8499 26.3501 36.3499 31.0501 35.2499C30.2501 33.9499 29.8501 32.3499 29.8501 30.4499V30.2999ZM60.0001 27.7499C62.4001 27.7499 64.7501 27.4999 67.0501 26.9999C69.3501 26.4999 71.3501 25.7999 73.0501 24.8999C74.8501 23.9999 76.3001 22.8999 77.4001 21.5999C78.5001 20.2999 79.0501 18.7999 79.0501 17.0999C79.2501 15.2999 78.5001 13.5499 76.8001 11.8499C75.1001 10.0499 72.0501 9.0499 67.6501 8.8499C64.3501 8.8499 60.9501 9.4499 57.4501 10.6499C58.4501 12.6499 59.1001 14.8499 59.4001 17.2499C59.6001 18.5499 59.6501 19.5499 59.5501 20.2499C59.4501 20.9499 59.3001 21.2499 59.1001 21.1499C58.9001 21.0499 58.8001 20.8499 58.8001 20.5499C58.9001 20.1499 58.7501 19.3499 58.3501 18.1499C58.0501 16.9499 57.6001 15.7999 57.0001 14.6999C56.4001 13.5999 55.7501 12.5499 55.0501 11.5499C53.6501 12.2499 51.9001 13.2999 49.8001 14.6999C47.7001 16.0999 45.8001 17.5999 44.1001 19.1999C42.6001 20.5999 41.2001 22.1499 39.9001 23.8499C42.6001 25.2499 45.7001 26.2499 49.2001 26.8499C52.7001 27.4499 56.2501 27.7499 59.8501 27.7499H60.0001ZM53.2501 9.1499C51.2501 6.8499 48.8001 4.9999 45.9001 3.5999C43.1001 2.0999 40.3001 1.4499 37.5001 1.6499C34.9001 1.8499 32.7001 2.6999 30.9001 4.1999C29.1001 5.5999 28.2001 7.6499 28.2001 10.3499C28.2001 12.2499 28.7001 14.0499 29.7001 15.7499C30.8001 17.3499 32.2501 18.8999 34.0501 20.3999C34.9501 19.1999 35.8501 18.1999 36.7501 17.3999C38.8501 15.4999 41.3501 13.8499 44.2501 12.4499C47.2501 11.0499 50.2001 9.9499 53.1001 9.1499H53.2501ZM36.9001 35.5499C37.2001 36.5499 38.0501 37.3499 39.4501 37.9499C40.8501 38.5499 42.3001 38.8999 43.8001 38.9999C45.2001 39.0999 46.4001 38.9999 47.4001 38.6999C48.5001 38.3999 49.1001 37.8999 49.2001 37.1999C49.2001 36.4999 48.5501 35.9999 47.2501 35.6999C46.0501 35.3999 44.9001 35.1999 43.8001 35.0999C43.0001 35.0999 41.9001 35.0999 40.5001 35.0999C39.1001 35.0999 37.9001 35.1999 36.9001 35.3999V35.5499Z" fill="#FFF9F2"/>
</svg>
