<svg xmlns="http://www.w3.org/2000/svg" width="139" height="73" fill="none" viewBox="0 0 139 73"><mask id="b" width="139" height="73" x="-.15" y="-.1" fill="#000" maskUnits="userSpaceOnUse"><path fill="#fff" d="M-.15-.1h139v73h-139z"/><path d="M3 58.35q0-3.9 2.4-6.45t5.4-2.7q2.55-.3 4.05 1.2 1.5 1.35 1.5 3.45-.15 1.65-1.05 2.7-.75 1.05-2.4 2.25-1.2.75-2.1 1.65-.75.9-.6 2.1 0 2.4 3.6 4.05 3.75 1.5 11.1.9 4.35-.45 8.55-1.65 4.35-1.35 8.25-3.15 4.05-1.8 7.65-3.9 3.6-2.25 6.75-4.35-1.05-.9-2.55-2.55-1.35-1.8-2.7-4.05-1.2-2.25-2.1-4.8-.9-2.7-.9-5.55.15-6.75 4.95-11.25 4.8-4.65 12.9-4.5 3 .15 5.55 1.35 2.55 1.05 4.5 2.7 2.1 1.5 3.45 3.45 1.5 1.8 2.1 3.3 1.65-1.65 3.3-3.15 1.65-1.65 3-2.85 6-5.4 11.7-10.05 5.85-4.8 11.55-7.8 4.35-2.4 9-4.05t9-1.65q2.1 0 3.3.6 1.35.45 1.95.9.75.6 1.05 1.2t0 .9q-.15 0-1.65-1.05-.45-.3-1.5-.6t-1.8-.3q-1.2 0-2.55.45t-2.25 1.2q-1.2 1.05-2.85 2.7-1.5 1.65-3.15 3.6-1.65 1.8-3.3 3.9-1.5 2.1-2.85 3.9-7.05 9.75-14.4 20.85Q91.65 52.2 85.2 62.7q3.9-.3 8.55-2.55 2.4-1.2 4.65-3.15t3.75-3.3q.75-.75 1.5-1.35t1.05-.3q.45.45-1.65 2.55-1.65 1.5-3.9 3.45-2.1 1.8-4.95 3.3-2.4 1.2-5.1 1.95-2.55.75-4.65.9-1.65 1.65-3 2.55-1.2.9-2.85 1.2t-2.55.15q-.75-.15-1.05-.6-.3-.3-.15-.75.15-.6.3-.9.3-.75.6-1.2.3-.6.6-1.05-2.1-.3-5.1-1.05-3-.9-4.8-1.65-2.4-.9-4.95-2.4-2.4-1.5-3.9-2.85-2.1 1.5-5.55 3.75-3.45 2.1-7.95 4.35-4.35 2.1-9.45 3.6-4.95 1.65-10.2 2.1-4.35.3-8.25-.3-3.9-.45-6.9-1.8Q6.45 66 4.65 63.9 3 61.65 3 58.5zm80.7-6.3q1.2-2.1 3.45-5.4t4.8-6.9q2.55-3.75 5.1-7.35 2.7-3.6 4.65-6.15 6.9-9 12.9-14.1t11.25-7.65v-.15q-2.55.3-6.45 1.8-3.9 1.35-7.8 3.45-5.25 3-10.5 7.2t-9.6 8.1q-2.4 2.25-4.8 4.65t-4.65 4.5q.6 1.2 1.05 3.9.6 2.55.9 5.7.3 4.2-.45 8.4zM65.7 24q-2.85 0-5.1 1.2t-3.9 3.15q-1.5 1.8-2.4 4.35-.75 2.4-.9 5.1-.15 4.65 1.65 8.85t3.3 6q2.25-1.95 5.1-4.2 2.85-2.4 5.85-5.1 5.4-4.65 10.65-9.75-2.25-4.2-5.85-6.9T65.85 24zm-6.3 30.15q1.2 1.35 3.45 2.7t4.35 2.4q1.8.75 4.65 1.65 3 .9 5.1 1.2.45-.75 1.05-1.8.75-1.2 1.35-2.25.75-1.05 1.35-1.8.6-.9.75-1.35.75-1.65.9-4.65.3-3 0-6.45-.3-2.4-.75-4.65-.3-2.25-1.05-3.9-2.7 2.55-5.25 4.95t-5.1 4.5q-3 2.7-5.7 4.95-2.55 2.25-5.1 4.35z"/></mask><path fill="url(#a)" d="M3 58.35q0-3.9 2.4-6.45t5.4-2.7q2.55-.3 4.05 1.2 1.5 1.35 1.5 3.45-.15 1.65-1.05 2.7-.75 1.05-2.4 2.25-1.2.75-2.1 1.65-.75.9-.6 2.1 0 2.4 3.6 4.05 3.75 1.5 11.1.9 4.35-.45 8.55-1.65 4.35-1.35 8.25-3.15 4.05-1.8 7.65-3.9 3.6-2.25 6.75-4.35-1.05-.9-2.55-2.55-1.35-1.8-2.7-4.05-1.2-2.25-2.1-4.8-.9-2.7-.9-5.55.15-6.75 4.95-11.25 4.8-4.65 12.9-4.5 3 .15 5.55 1.35 2.55 1.05 4.5 2.7 2.1 1.5 3.45 3.45 1.5 1.8 2.1 3.3 1.65-1.65 3.3-3.15 1.65-1.65 3-2.85 6-5.4 11.7-10.05 5.85-4.8 11.55-7.8 4.35-2.4 9-4.05t9-1.65q2.1 0 3.3.6 1.35.45 1.95.9.75.6 1.05 1.2t0 .9q-.15 0-1.65-1.05-.45-.3-1.5-.6t-1.8-.3q-1.2 0-2.55.45t-2.25 1.2q-1.2 1.05-2.85 2.7-1.5 1.65-3.15 3.6-1.65 1.8-3.3 3.9-1.5 2.1-2.85 3.9-7.05 9.75-14.4 20.85Q91.65 52.2 85.2 62.7q3.9-.3 8.55-2.55 2.4-1.2 4.65-3.15t3.75-3.3q.75-.75 1.5-1.35t1.05-.3q.45.45-1.65 2.55-1.65 1.5-3.9 3.45-2.1 1.8-4.95 3.3-2.4 1.2-5.1 1.95-2.55.75-4.65.9-1.65 1.65-3 2.55-1.2.9-2.85 1.2t-2.55.15q-.75-.15-1.05-.6-.3-.3-.15-.75.15-.6.3-.9.3-.75.6-1.2.3-.6.6-1.05-2.1-.3-5.1-1.05-3-.9-4.8-1.65-2.4-.9-4.95-2.4-2.4-1.5-3.9-2.85-2.1 1.5-5.55 3.75-3.45 2.1-7.95 4.35-4.35 2.1-9.45 3.6-4.95 1.65-10.2 2.1-4.35.3-8.25-.3-3.9-.45-6.9-1.8Q6.45 66 4.65 63.9 3 61.65 3 58.5zm80.7-6.3q1.2-2.1 3.45-5.4t4.8-6.9q2.55-3.75 5.1-7.35 2.7-3.6 4.65-6.15 6.9-9 12.9-14.1t11.25-7.65v-.15q-2.55.3-6.45 1.8-3.9 1.35-7.8 3.45-5.25 3-10.5 7.2t-9.6 8.1q-2.4 2.25-4.8 4.65t-4.65 4.5q.6 1.2 1.05 3.9.6 2.55.9 5.7.3 4.2-.45 8.4zM65.7 24q-2.85 0-5.1 1.2t-3.9 3.15q-1.5 1.8-2.4 4.35-.75 2.4-.9 5.1-.15 4.65 1.65 8.85t3.3 6q2.25-1.95 5.1-4.2 2.85-2.4 5.85-5.1 5.4-4.65 10.65-9.75-2.25-4.2-5.85-6.9T65.85 24zm-6.3 30.15q1.2 1.35 3.45 2.7t4.35 2.4q1.8.75 4.65 1.65 3 .9 5.1 1.2.45-.75 1.05-1.8.75-1.2 1.35-2.25.75-1.05 1.35-1.8.6-.9.75-1.35.75-1.65.9-4.65.3-3 0-6.45-.3-2.4-.75-4.65-.3-2.25-1.05-3.9-2.7 2.55-5.25 4.95t-5.1 4.5q-3 2.7-5.7 4.95-2.55 2.25-5.1 4.35z"/><path fill="#1a1c28" d="m5.4 51.9 2.185 2.056zm5.4-2.7.15 2.996.1-.005.1-.012zm4.05 1.2-2.12 2.12.056.056.058.053zm1.5 3.45 2.988.271.012-.135v-.136zm-1.05 2.7-2.278-1.953-.086.101-.077.108zm-2.4 2.25 1.59 2.544.09-.056.085-.062zm-2.1 1.65-2.12-2.121-.096.096-.088.104zm-.6 2.1h3v-.187l-.023-.185zm3.6 4.05-1.25 2.727.067.03.069.028zm11.1.9.244 2.99.033-.003.032-.003zm8.55-1.65.824 2.885.033-.01.032-.01zm8.25-3.15-1.218-2.742-.02.01-.02.008zm7.65-3.9 1.512 2.591.04-.023.038-.024zm6.75-4.35 1.664 2.496 3.295-2.197-3.006-2.577zm-2.55-2.55-2.4 1.8.085.113.095.105zm-2.7-4.05-2.647 1.412.036.066.039.065zm-2.1-4.8-2.846.949.008.024.01.025zm-.9-5.55-3-.067v.067zm4.95-11.25 2.052 2.189.018-.017.018-.017zm12.9-4.5.15-2.996-.047-.003h-.047zm5.55 1.35-1.277 2.714.067.032.068.028zm4.5 2.7-1.938 2.29.094.08.1.071zm3.45 3.45-2.466 1.707.076.11.085.104zm2.1 3.3-2.785 1.114 1.69 4.224 3.216-3.217zm3.3-3.15 2.018 2.22.053-.048.05-.05zm3-2.85 1.993 2.242.007-.006.007-.006zM99.3 16.5l1.896 2.325.007-.006zm11.55-7.8 1.397 2.655.026-.014.026-.014zm9-4.05-1.003-2.827zm12.3-1.05-1.342 2.683.191.096.202.067zm1.95.9 1.874-2.343-.036-.029-.038-.028zm1.05 1.2 2.683-1.342zm0 .9v3h1.243l.878-.879zm-1.65-1.05 1.72-2.458-.027-.02-.029-.018zm-5.85-.45-.949-2.846zm-2.25 1.2-1.92-2.305-.028.023-.027.024zM122.55 9l-2.121-2.121-.051.05-.048.053zm-3.15 3.6 2.212 2.027.04-.044.038-.045zm-3.3 3.9-2.359-1.854-.042.054-.04.056zm-2.85 3.9-2.4-1.8-.016.02-.015.022zm-14.4 20.85-2.501-1.656-.006.008zM85.2 62.7l-2.556-1.57-3.08 5.012 5.866-.45zm8.55-2.55 1.307 2.7.017-.008.018-.009zM98.4 57l-1.965-2.267zm3.75-3.3 2.007 2.23.059-.053.055-.056zm2.55-1.65 2.121-2.121zm-1.65 2.55 2.018 2.22.053-.048.05-.05zm-3.9 3.45 1.952 2.278.007-.006.006-.005zm-4.95 3.3 1.342 2.683.028-.014.027-.014zm-5.1 1.95-.803-2.89-.022.005-.021.007zm-4.65.9-.214-2.992-1.116.08-.791.79zm-3 2.55-1.664-2.496-.07.046-.066.05zm-2.85 1.2.537 2.951zm-2.55.15-.588 2.942.047.01.048.007zM75 67.5l2.496-1.664-.164-.247-.21-.21zm-.15-.75 2.846.949.037-.11.027-.111zm.3-.9 2.683 1.342.056-.112.047-.116zm.6-1.2 2.496 1.664.104-.155.083-.168zm.6-1.05 2.496 1.664 2.64-3.96-4.712-.674zm-5.1-1.05-.862 2.873.067.02.067.017zm-4.8-1.65 1.154-2.77-.05-.02-.05-.02zm-4.95-2.4-1.59 2.544.034.021.035.02zm-3.9-2.85 2.007-2.23-1.79-1.611-1.96 1.4zm-5.55 3.75 1.56 2.563.04-.025.039-.025zm-7.95 4.35 1.304 2.702.02-.01.018-.009zm-9.45 3.6-.846-2.878-.052.015-.05.017zm-10.2 2.1.207 2.993.024-.002.025-.002zm-8.25-.3.456-2.965-.056-.009-.056-.006zm-6.9-1.8-1.284 2.71.026.013.027.012zM4.65 63.9l-2.42 1.774.068.092.074.086zM83.7 52.05v3h1.741l.864-1.512zm8.25-12.3 2.448 1.734.017-.023.016-.024zm5.1-7.35-2.4-1.8-.024.032-.024.034zm4.65-6.15-2.38-1.825-.003.002zm12.9-14.1 1.943 2.286zm11.25-7.65 1.311 2.698 1.689-.82V4.5zm0-.15h3V.976l-3.35.394zm-6.45 1.8.981 2.835.049-.017.047-.018zm-7.8 3.45-1.422-2.642-.033.018-.033.02zm-10.5 7.2-1.874-2.343zm-9.6 8.1-2.002-2.234-.025.023-.025.022zm-4.8 4.65 2.121 2.121zm-4.65 4.5-2.047-2.193-1.639 1.53 1.003 2.005zm1.05 3.9-2.96.493.017.098.023.096zm.9 5.7 2.993-.214-.003-.035-.003-.036zm-.45 8.4-2.953-.527-.63 3.527h3.583zM60.6 25.2l-1.412-2.647zm-3.9 3.15-2.29-1.938-.007.009-.008.008zm-2.4 4.35-2.829-.999-.018.052-.016.052zm-.9 5.1-2.995-.166-.002.034-.001.035zm1.65 8.85 2.758-1.182zm3.3 6-2.305 1.92 1.959 2.35 2.31-2.003zm5.1-4.2 1.859 2.355.037-.03.036-.03zm5.85-5.1-1.957-2.273-.025.021-.025.022zm10.65-9.75 2.09 2.152 1.622-1.576-1.068-1.993zM59.4 54.15h-3v1.14l.758.853zm3.45 2.7-1.543 2.572zm4.35 2.4-1.341 2.683.092.046.095.04zm4.65 1.65-.903 2.86.02.007.021.006zm5.1 1.2-.424 2.97 1.972.281 1.025-1.708zM78 60.3l-2.544-1.59-.031.05-.03.052zm1.35-2.25-2.441-1.744-.088.124-.076.132zm1.35-1.8 2.343 1.874.081-.102.072-.108zm.75-1.35-2.731-1.242-.065.144-.05.15zm.9-4.65-2.985-.299-.007.075-.004.074zm0-6.45 2.989-.26-.005-.056-.007-.056zm-.75-4.65-2.974.396.013.097.02.095zm-1.05-3.9 2.731-1.242-1.738-3.823-3.053 2.884zM75.3 40.2l-2.056-2.185zm-5.1 4.5-1.907-2.316-.05.042-.05.044zm-5.7 4.95-1.92-2.305-.033.027-.032.028zM59.4 54l-1.907-2.316-1.093.9V54zM3 58.35h3c0-1.93.57-3.315 1.585-4.394L5.4 51.9l-2.185-2.056C1.031 52.165 0 55.08 0 58.35zm2.4-6.45 2.185 2.056c1.163-1.236 2.267-1.705 3.365-1.76L10.8 49.2l-.15-2.996c-2.902.145-5.398 1.476-7.434 3.64zm5.4-2.7.35 2.98c1.002-.118 1.366.128 1.579.341L14.85 50.4l2.121-2.121c-1.787-1.788-4.123-2.34-6.521-2.059zm4.05 1.2-2.007 2.23c.34.305.507.631.507 1.22h6c0-2.211-.832-4.185-2.493-5.68zm1.5 3.45-2.988-.272c-.055.605-.22.88-.34 1.02L15.3 56.55l2.278 1.952c1.08-1.26 1.615-2.786 1.76-4.38zm-1.05 2.7-2.441-1.744c-.236.331-.751.86-1.723 1.568L12.9 58.8l1.765 2.426c1.227-.893 2.313-1.863 3.076-2.932zm-2.4 2.25-1.59-2.544a14.8 14.8 0 0 0-2.631 2.073l2.121 2.12 2.121 2.122c.423-.422.94-.834 1.57-1.227zm-2.1 1.65-2.305-1.92c-1.05 1.26-1.471 2.798-1.272 4.392l2.977-.372 2.977-.372q-.002-.035-.002-.01a.5.5 0 0 1-.052.173c-.013.024-.022.034-.018.03zm-.6 2.1h-3c0 3.422 2.637 5.534 5.35 6.777L13.8 66.6l1.25-2.727c-.982-.45-1.48-.849-1.708-1.104a.8.8 0 0 1-.138-.196c-.003-.008-.004-.009-.004-.023zm3.6 4.05-1.114 2.785c3.154 1.262 7.418 1.516 12.458 1.105L24.9 67.5l-.244-2.99c-4.76.388-7.896.043-9.742-.696zm11.1.9.309 2.984a52.7 52.7 0 0 0 9.065-1.75l-.824-2.884-.824-2.885a46.7 46.7 0 0 1-8.035 1.55zm8.55-1.65.89 2.865a70 70 0 0 0 8.617-3.291L41.7 62.7l-1.257-2.724a64 64 0 0 1-7.882 3.009zm8.25-3.15 1.218 2.741a81 81 0 0 0 7.944-4.05L49.35 58.8l-1.511-2.591a75 75 0 0 1-7.357 3.75zm7.65-3.9 1.59 2.544a277 277 0 0 0 6.824-4.398L56.1 54.45l-1.664-2.496a271 271 0 0 1-6.676 4.302zm6.75-4.35 1.953-2.278c-.567-.485-1.323-1.234-2.283-2.29L53.55 51.9l-2.22 2.018c1.04 1.144 1.984 2.095 2.818 2.81zm-2.55-2.55 2.4-1.8a44 44 0 0 1-2.527-3.794L50.85 47.85l-2.572 1.543A50 50 0 0 0 51.15 53.7zm-2.7-4.05 2.647-1.412a32 32 0 0 1-1.918-4.387l-2.829.999-2.829.998a38 38 0 0 0 2.282 5.214zm-2.1-4.8 2.846-.949a14.4 14.4 0 0 1-.746-4.601h-6c0 2.222.352 4.392 1.054 6.499zm-.9-5.55 3 .067c.082-3.718 1.407-6.696 4.002-9.128l-2.052-2.19-2.052-2.188c-3.805 3.568-5.78 8.09-5.897 13.372zm4.95-11.25 2.088 2.155c2.508-2.43 5.974-3.744 10.757-3.656l.055-3 .056-2.999c-6.018-.111-11.152 1.575-15.043 5.345zm12.9-4.5-.15 2.996c1.636.082 3.1.446 4.423 1.068L71.25 23.1l1.278-2.715c-2.077-.977-4.314-1.513-6.678-1.631zm5.55 1.35-1.142 2.774c1.434.59 2.66 1.333 3.704 2.216l1.938-2.29 1.938-2.29c-1.557-1.317-3.33-2.375-5.296-3.184zm4.5 2.7-1.744 2.441c1.144.817 2.041 1.725 2.728 2.717L79.2 29.25l2.467-1.708c-1.114-1.608-2.517-3-4.173-4.183zm3.45 3.45-2.305 1.92c.881 1.057 1.376 1.886 1.62 2.494L81.3 32.55l2.785-1.114c-.556-1.392-1.461-2.764-2.58-4.107zm2.1 3.3 2.121 2.121a93 93 0 0 1 3.197-3.051L84.6 29.4l-2.018-2.22a99 99 0 0 0-3.403 3.249zm3.3-3.15 2.121 2.121a68 68 0 0 1 2.872-2.729L87.6 26.55l-1.993-2.242a74 74 0 0 0-3.128 2.97zm3-2.85 2.007 2.23q5.95-5.355 11.589-9.955L99.3 16.5l-1.896-2.325a321 321 0 0 0-11.81 10.145zM99.3 16.5l1.903 2.32c3.77-3.094 7.452-5.574 11.044-7.465L110.85 8.7l-1.397-2.655c-4.008 2.11-8.025 4.829-12.056 8.136zm11.55-7.8 1.449 2.627a57.5 57.5 0 0 1 8.554-3.85L119.85 4.65l-1.003-2.827a63.4 63.4 0 0 0-9.446 4.25zm9-4.05 1.003 2.827c2.821-1 5.481-1.477 7.997-1.477V0c-3.284 0-6.624.623-10.003 1.823zm9-1.65v3c1.171 0 1.745.176 1.958.283L132.15 3.6l1.342-2.683C132.105.223 130.479 0 128.85 0zm3.3.6-.949 2.846c.377.125.656.236.854.328.208.096.269.144.245.126l1.8-2.4 1.8-2.4c-.795-.597-1.818-1.018-2.801-1.346zm1.95.9-1.874 2.343c.139.11.216.19.254.232.037.043.02.033-.013-.033L135.15 5.7l2.683-1.342c-.459-.918-1.156-1.638-1.859-2.2zm1.05 1.2-2.683 1.342c-.015-.03-.167-.33-.167-.817 0-.592.229-1.247.729-1.746l2.121 2.12 2.121 2.122c1.61-1.609.947-3.593.562-4.363zm0 .9v-3a2.9 2.9 0 0 1 1.084.21c.108.044.176.081.179.083.013.007-.025-.013-.14-.087a31 31 0 0 1-1.053-.714L133.5 5.55l-1.72 2.458c.511.357.941.65 1.272.86.16.102.34.213.516.308.085.045.22.115.381.182.039.015.542.242 1.201.242zm-1.65-1.05 1.664-2.496c-.705-.47-1.581-.772-2.34-.989L132 4.95l-.824 2.884c.283.081.481.15.61.201.142.057.135.068.05.011zm-1.5-.6.824-2.885c-.857-.245-1.75-.415-2.624-.415v6c.126 0 .434.03.976.184zm-1.8-.3v-3c-1.176 0-2.348.22-3.499.604l.949 2.846.949 2.846c.649-.217 1.177-.296 1.601-.296zm-2.55.45-.949-2.846c-1.18.393-2.28.956-3.221 1.741L125.4 6.3l1.921 2.305c.258-.216.659-.453 1.278-.66zm-2.25 1.2-1.975-2.258a63 63 0 0 0-2.996 2.837l2.121 2.12 2.121 2.122a58 58 0 0 1 2.705-2.563zM122.55 9l-2.22-2.018q-1.54 1.695-3.22 3.68l2.29 1.938 2.29 1.938a133 133 0 0 1 3.08-3.52zm-3.15 3.6-2.211-2.027a70 70 0 0 0-3.448 4.073L116.1 16.5l2.359 1.853a64 64 0 0 1 3.153-3.726zm-3.3 3.9-2.441-1.744a205 205 0 0 1-2.809 3.844l2.4 1.8 2.4 1.8a208 208 0 0 0 2.891-3.956zm-2.85 3.9-2.431-1.758a620 620 0 0 0-14.47 20.952l2.501 1.656 2.501 1.656a615 615 0 0 1 14.33-20.748zm-14.4 20.85-2.507-1.648a829 829 0 0 0-13.7 21.528L85.2 62.7l2.556 1.57a823 823 0 0 1 13.601-21.372zM85.2 62.7l.23 2.991c3.073-.236 6.292-1.227 9.627-2.84L93.75 60.15l-1.307-2.7c-2.864 1.386-5.346 2.095-7.473 2.259zm8.55-2.55 1.342 2.683c1.847-.923 3.604-2.12 5.273-3.566L98.4 57l-1.965-2.267c-1.33 1.153-2.674 2.057-4.026 2.734zM98.4 57l1.965 2.267a280 280 0 0 0 3.792-3.337l-2.007-2.23-2.007-2.23q-1.47 1.324-3.708 3.263zm3.75-3.3 2.121 2.121q.645-.644 1.253-1.128l-1.874-2.343-1.874-2.343a21 21 0 0 0-1.747 1.572zm1.5-1.35 1.874 2.343c.14-.112-.018.054-.412.166-.226.065-.627.14-1.127.049a2.67 2.67 0 0 1-1.406-.737l2.121-2.121 2.121-2.121c-1.096-1.097-2.484-1.088-3.358-.839-.744.213-1.326.629-1.687.917zm1.05-.3-2.121 2.121a2.73 2.73 0 0 1-.748-1.395 2.6 2.6 0 0 1 .003-1.035c.082-.376.222-.554.16-.458-.098.15-.402.532-1.065 1.196l2.121 2.12 2.121 2.122c.737-.736 1.408-1.48 1.86-2.179.214-.33.522-.864.666-1.527.156-.717.182-2.029-.876-3.086zm-1.65 2.55-2.018-2.22q-1.617 1.47-3.847 3.403l1.965 2.267 1.965 2.267a227 227 0 0 0 3.953-3.497zm-3.9 3.45-1.952-2.278c-1.205 1.033-2.662 2.011-4.395 2.923L94.2 61.35l1.397 2.655c2.067-1.088 3.91-2.31 5.505-3.677zm-4.95 3.3-1.341-2.683a25.3 25.3 0 0 1-4.562 1.742l.803 2.89.803 2.892a31.3 31.3 0 0 0 5.639-2.158zm-5.1 1.95-.846-2.878c-1.545.454-2.88.704-4.018.786l.214 2.992.214 2.992c1.662-.118 3.427-.468 5.283-1.014zm-4.65.9-2.121-2.121c-1.016 1.015-1.861 1.72-2.543 2.175l1.664 2.496 1.664 2.496c1.119-.746 2.273-1.74 3.457-2.925zm-3 2.55-1.8-2.4c-.385.289-.89.522-1.587.648l.537 2.952.537 2.951c1.503-.273 2.898-.84 4.113-1.751zm-2.85 1.2-.537-2.952a9 9 0 0 1-1.102.145 3 3 0 0 1-.31.006 1 1 0 0 1-.108-.008L76.05 68.1l-.493 2.96c1.117.185 2.375.06 3.58-.159zm-2.55.15.588-2.942c-.046-.01.461.082.858.678L75 67.5l-2.496 1.664c.797 1.195 2.004 1.687 2.958 1.878zM75 67.5l2.121-2.121c.272.27.53.677.633 1.195.1.496.018.897-.058 1.125l-2.846-.95-2.846-.948a3.8 3.8 0 0 0-.133 1.95 3.66 3.66 0 0 0 1.008 1.87zm-.15-.75 2.91.728c.037-.147.066-.245.086-.304l.014-.041-.006.015-.02.044-2.684-1.342-2.683-1.342c-.248.496-.41 1.048-.527 1.514zm.3-.9 2.785 1.114c.157-.392.268-.585.311-.65L75.75 64.65l-2.496-1.664c-.357.535-.646 1.142-.89 1.75zm.6-1.2 2.683 1.341c.157-.313.296-.552.413-.727L76.35 63.6l-2.496-1.664c-.283.424-.544.886-.787 1.372zm.6-1.05.424-2.97c-1.263-.18-2.856-.505-4.796-.99l-.728 2.91-.728 2.91c2.06.515 3.867.89 5.404 1.11zm-5.1-1.05.862-2.874c-1.952-.585-3.443-1.102-4.508-1.545L66.45 60.9l-1.154 2.77c1.335.555 3.045 1.14 5.092 1.753zm-4.8-1.65 1.053-2.81c-1.415-.53-2.909-1.25-4.482-2.176l-1.52 2.586-1.522 2.586c1.827 1.074 3.633 1.954 5.418 2.623zm-4.95-2.4 1.59-2.544c-1.506-.941-2.653-1.789-3.483-2.536L57.6 55.65l-2.007 2.23c1.17 1.052 2.623 2.105 4.317 3.164zm-3.9-2.85-1.744-2.441c-1.351.965-3.162 2.19-5.445 3.678l1.64 2.513 1.638 2.513c2.317-1.512 4.206-2.787 5.655-3.822zm-5.55 3.75-1.56-2.563q-3.32 2.022-7.732 4.23L44.1 63.75l1.342 2.683q4.587-2.292 8.168-4.47zm-7.95 4.35-1.304-2.702q-4.107 1.984-8.992 3.424l.846 2.878.847 2.878c3.541-1.042 6.846-2.298 9.907-3.776zm-9.45 3.6-.949-2.846a41 41 0 0 1-9.507 1.957l.256 2.989.256 2.989A47 47 0 0 0 35.6 70.196zm-10.2 2.1-.206-2.993c-2.702.186-5.228.09-7.588-.272L16.2 69.15l-.456 2.965c2.84.437 5.814.541 8.913.328zm-8.25-.3.344-2.98c-2.35-.272-4.343-.804-6.013-1.556l-1.23 2.736-1.232 2.736c2.33 1.048 4.938 1.715 7.787 2.044zm-6.9-1.8 1.284-2.711c-1.572-.745-2.766-1.653-3.656-2.691L4.65 63.9l-2.278 1.952c1.51 1.762 3.416 3.154 5.644 4.21zM4.65 63.9l2.42-1.774C6.394 61.206 6 60.048 6 58.5H0c0 2.652.706 5.094 2.23 7.174zM3 58.5h3v-.15H0v.15zm80.7-6.45 2.605 1.488c.743-1.301 1.844-3.027 3.324-5.198l-2.479-1.69-2.479-1.69c-1.52 2.23-2.72 4.103-3.576 5.602zm3.45-5.4 2.479 1.69a467 467 0 0 1 4.77-6.856L91.95 39.75l-2.448-1.734a475 475 0 0 0-4.83 6.944zm4.8-6.9 2.48 1.687a464 464 0 0 1 5.068-7.303L97.05 32.4l-2.448-1.734a471 471 0 0 0-5.133 7.397zm5.1-7.35 2.4 1.8a875 875 0 0 1 4.633-6.128L101.7 26.25l-2.383-1.823A847 847 0 0 0 94.65 30.6zm4.65-6.15 2.381 1.825c4.522-5.898 8.677-10.422 12.462-13.64L114.6 12.15l-1.943-2.286c-4.215 3.583-8.66 8.459-13.338 14.56zm12.9-14.1 1.943 2.286c3.87-3.29 7.408-5.679 10.618-7.238L125.85 4.5l-1.311-2.7c-3.79 1.842-7.752 4.552-11.882 8.063zm11.25-7.65h3v-.15h-6v.15zm0-.15-.35-2.98c-2.055.242-4.469.939-7.177 1.98l1.077 2.8 1.077 2.8c2.493-.959 4.378-1.462 5.724-1.62zm-6.45 1.8-.981-2.835a56 56 0 0 0-8.241 3.643L111.6 9.6l1.422 2.641a50 50 0 0 1 7.359-3.256zm-7.8 3.45-1.488-2.605c-3.649 2.085-7.278 4.576-10.886 7.462L101.1 16.8l1.874 2.342q5.088-4.068 10.115-6.937zm-10.5 7.2-1.874-2.343a227 227 0 0 0-9.728 8.21L91.5 24.9l2.003 2.234a222 222 0 0 1 9.471-7.992zm-9.6 8.1-2.052-2.189a210 210 0 0 0-4.87 4.718l2.122 2.12 2.121 2.122a205 205 0 0 1 4.73-4.582zm-4.8 4.65-2.121-2.121a185 185 0 0 1-4.576 4.428l2.047 2.193 2.047 2.193a191 191 0 0 0 4.724-4.572zm-4.65 4.5-2.683 1.342c.189.378.483 1.306.774 3.051l2.96-.493 2.958-.493c-.309-1.855-.715-3.527-1.326-4.749zm1.05 3.9-2.92.687c.363 1.544.644 3.306.834 5.297L84 43.65l2.987-.285c-.21-2.208-.53-4.246-.967-6.102zm.9 5.7-2.992.214q.274 3.822-.411 7.659l2.953.527 2.953.527c.543-3.04.707-6.09.49-9.14zm-.45 8.4v3h.15v-6h-.15zM65.7 24v-3c-2.334 0-4.528.495-6.512 1.553L60.6 25.2l1.412 2.647C63.028 27.305 64.234 27 65.7 27zm-5.1 1.2-1.412-2.647a16.2 16.2 0 0 0-4.778 3.86l2.29 1.937 2.29 1.938a10.2 10.2 0 0 1 3.022-2.441zm-3.9 3.15-2.305-1.92c-1.26 1.512-2.223 3.286-2.924 5.271l2.83.999 2.828.998c.5-1.415 1.136-2.54 1.876-3.428zm-2.4 4.35-2.863-.895c-.58 1.854-.92 3.8-1.032 5.828l2.995.167 2.996.166c.087-1.57.347-3.025.767-4.371zm-.9 5.1-2.998-.097c-.114 3.53.515 6.918 1.89 10.129l2.758-1.182 2.758-1.182c-1.024-2.389-1.496-4.902-1.41-7.571zm1.65 8.85-2.757 1.182c1.227 2.864 2.465 5.193 3.752 6.739l2.305-1.921 2.305-1.92c-.712-.855-1.675-2.526-2.848-5.262zm3.3 6 1.965 2.267a142 142 0 0 1 4.994-4.112L63.45 48.45l-1.859-2.355a148 148 0 0 0-5.206 4.288zm5.1-4.2 1.932 2.295a239 239 0 0 0 5.925-5.165L69.3 43.35l-2.007-2.23a233 233 0 0 1-5.775 5.035zm5.85-5.1 1.958 2.273q5.469-4.71 10.782-9.871L79.95 33.6l-2.09-2.152a238 238 0 0 1-10.517 9.629zm10.65-9.75 2.644-1.417C80.9 29.021 78.67 26.378 75.9 24.3l-1.8 2.4-1.8 2.4c2.03 1.522 3.7 3.479 5.006 5.917zm-5.85-6.9 1.8-2.4c-2.937-2.203-6.324-3.3-10.05-3.3v6c2.474 0 4.588.703 6.45 2.1zM65.85 24v-3h-.15v6h.15zM59.4 54.15l-2.242 1.993c1.071 1.205 2.495 2.287 4.149 3.28l1.543-2.573 1.544-2.573c-1.347-.807-2.223-1.525-2.752-2.12zm3.45 2.7-1.543 2.572a68 68 0 0 0 4.552 2.511L67.2 59.25l1.342-2.683a62 62 0 0 1-4.148-2.29zm4.35 2.4-1.154 2.77c1.313.546 2.955 1.126 4.9 1.74l.904-2.86.904-2.86c-1.855-.587-3.313-1.106-4.4-1.56zm4.65 1.65-.862 2.873c2.083.625 3.938 1.068 5.538 1.297l.424-2.97.424-2.97c-1.2-.171-2.745-.528-4.662-1.104zm5.1 1.2 2.573 1.543q.471-.786 1.082-1.855L78 60.3l-2.605-1.488a97 97 0 0 1-1.017 1.744zM78 60.3l2.544 1.59q.777-1.242 1.41-2.352L79.35 58.05l-2.605-1.488q-.565.99-1.289 2.148zm1.35-2.25 2.441 1.744c.479-.67.895-1.224 1.252-1.67L80.7 56.25l-2.343-1.874q-.665.833-1.448 1.93zm1.35-1.8 2.496 1.664c.409-.612.862-1.352 1.1-2.065l-2.846-.95-2.846-.948c.02-.061.034-.086.024-.067a2 2 0 0 1-.063.121 9 9 0 0 1-.361.58zm.75-1.35 2.731 1.241c.726-1.597 1.057-3.58 1.165-5.741l-2.996-.15-2.996-.15c-.092 1.838-.36 2.955-.635 3.558zm.9-4.65 2.985.298c.221-2.21.218-4.549.004-7.008l-2.989.26-2.989.26c.186 2.14.183 4.102.004 5.891zm0-6.45 2.977-.372a68 68 0 0 0-.785-4.866l-2.942.588-2.942.588q.428 2.137.715 4.434zm-.75-4.65 2.974-.397c-.23-1.721-.645-3.319-1.293-4.745l-2.73 1.242-2.732 1.241c.352.774.637 1.777.807 3.055zm-1.05-3.9-2.06-2.181a4163 4163 0 0 1-5.246 4.946L75.3 40.2l2.056 2.185q2.553-2.403 5.254-4.954zM75.3 40.2l-2.056-2.185a100 100 0 0 1-4.951 4.37L70.2 44.7l1.907 2.316a106 106 0 0 0 5.25-4.631zm-5.1 4.5-2.007-2.23a196 196 0 0 1-5.613 4.875l1.92 2.305 1.92 2.305a202 202 0 0 0 5.787-5.025zm-5.7 4.95-1.985-2.25a194 194 0 0 1-5.022 4.284L59.4 54l1.907 2.316a200 200 0 0 0 5.178-4.417zM59.4 54h-3v.15h6V54z" mask="url(#b)"/><defs><linearGradient id="a" x1="-2.311" x2="102.85" y1="31.005" y2="62.4" gradientUnits="userSpaceOnUse"><stop stop-color="#f6df75"/><stop offset=".587" stop-color="#ffb200"/><stop offset=".793" stop-color="#fbe47c"/><stop offset=".976" stop-color="#efd86e"/></linearGradient></defs></svg>