<svg xmlns="http://www.w3.org/2000/svg" width="172" height="187" fill="none" viewBox="0 0 172 187"><g filter="url(#a)"><ellipse cx="100.08" cy="51.741" fill="#bbc8d4" rx=".574" ry="53.657" transform="rotate(155.616 100.08 51.74)"/></g><g filter="url(#b)" opacity=".2"><ellipse cx="121.855" cy="74.736" fill="#fff" rx="1.575" ry="57.504" transform="rotate(125.275 121.855 74.736)"/><path stroke="#ff9400" stroke-width=".287" d="M168.515 107.77a7 7 0 0 1-.785-.368c-.68-.356-1.656-.927-2.898-1.689-2.482-1.526-6.015-3.818-10.345-6.706-8.658-5.776-20.496-13.933-33.459-23.103S96.433 58.29 88.103 52.048c-4.165-3.121-7.503-5.69-9.768-7.523-1.132-.916-1.995-1.646-2.557-2.169a7 7 0 0 1-.609-.618l-.047-.06.073.023q.273.1.785.369c.68.356 1.656.926 2.898 1.688 2.482 1.526 6.016 3.818 10.345 6.706 8.659 5.776 20.495 13.934 33.458 23.103s24.597 17.615 32.926 23.857c4.165 3.12 7.503 5.689 9.768 7.522 1.133.916 1.995 1.647 2.557 2.17q.423.393.609.617l.048.061z"/></g><g filter="url(#c)"><circle cx="104.827" cy="66.035" r="11.908" fill="#fff" transform="rotate(155.616 104.827 66.035)"/></g><path fill="#fff9f2" d="M74.493 46.619q9.765 0 18.972 4.743 9.207 4.464 14.787 12.555 3.069-.837 6.975-1.395 4.185-.837 8.091-.837 6.696-.279 12.834.558 6.417.837 11.16 3.348 4.743 2.232 6.975 6.417 2.511 4.185 1.395 10.602t-6.696 11.439q-5.58 4.743-13.392 8.091-7.533 3.069-16.461 4.743-8.928 1.395-17.019 1.395-11.718 0-23.157-2.79t-18.972-8.37a126 126 0 0 0-14.508 15.345q-6.696 8.091-11.718 16.461-4.743 8.091-7.533 16.182-2.511 7.812-2.511 14.508 0 12.276 6.696 17.298 6.696 5.301 17.298 5.301 12.555 0 22.32-4.464 10.044-4.464 18.135-9.765 4.743-3.348 9.765-7.533 5.301-4.464 7.254-6.696l1.395-1.395q1.116-.837 1.674-.279t0 1.674a3.5 3.5 0 0 1-.837 1.395q-1.116 1.116-3.348 3.069a105 105 0 0 1-4.464 4.185 134 134 0 0 1-5.301 4.464 117 117 0 0 1-5.022 3.348q-8.649 6.138-19.251 10.602-10.323 4.743-22.878 5.301-17.298.558-28.458-6.138T6.975 157.94q-.279-9.207 3.627-18.414 3.906-9.486 10.323-18.414t14.787-16.74q8.37-8.091 17.019-14.229a38.5 38.5 0 0 1-5.022-8.37q-1.953-4.464-1.953-9.207 0-5.859 2.232-10.602 2.511-4.743 6.417-8.091a24.25 24.25 0 0 1 8.928-5.301 31.2 31.2 0 0 1 10.881-1.953zm28.458 58.869q7.533 0 14.508-1.674 7.254-1.674 12.834-4.743 5.859-3.348 9.765-7.533 4.185-4.464 5.301-9.486 2.232-9.765-3.906-14.229-5.859-4.464-17.019-4.185-3.348.279-7.812 1.116-4.185.837-6.696 1.953 1.674 3.069 2.79 7.254a59 59 0 0 1 1.674 7.812q.279 3.348 0 5.58-.279 1.953-.837 1.395-.558-.279-.558-1.395.279-1.116-.558-4.185-.837-4.185-2.79-8.37-1.953-4.464-3.906-6.975-11.16 4.185-22.878 11.718T62.217 95.165q7.254 5.58 18.135 8.091 10.881 2.232 22.32 2.232zM71.982 50.246q-8.928 0-15.903 6.138-6.696 5.859-6.696 16.461 0 3.906 1.674 8.091a46.3 46.3 0 0 0 4.743 7.533 216 216 0 0 1 23.994-13.671q12.555-6.138 24.273-9.486-6.417-7.254-15.066-11.16-8.37-3.906-16.74-3.906z"/><defs><filter id="a" width="50.055" height="103.481" x="75.053" y="0" color-interpolation-filters="sRGB" filterUnits="userSpaceOnUse"><feFlood flood-opacity="0" result="BackgroundImageFix"/><feBlend in="SourceGraphic" in2="BackgroundImageFix" result="shape"/><feGaussianBlur result="effect1_foregroundBlur_2637_116" stdDeviation="1.435"/></filter><filter id="b" width="99.648" height="72.207" x="72.031" y="38.632" color-interpolation-filters="sRGB" filterUnits="userSpaceOnUse"><feFlood flood-opacity="0" result="BackgroundImageFix"/><feBlend in="SourceGraphic" in2="BackgroundImageFix" result="shape"/><feGaussianBlur result="effect1_foregroundBlur_2637_116" stdDeviation="1.435"/></filter><filter id="c" width="52.515" height="52.515" x="78.57" y="39.778" color-interpolation-filters="sRGB" filterUnits="userSpaceOnUse"><feFlood flood-opacity="0" result="BackgroundImageFix"/><feBlend in="SourceGraphic" in2="BackgroundImageFix" result="shape"/><feGaussianBlur result="effect1_foregroundBlur_2637_116" stdDeviation="7.173"/></filter></defs></svg>