<svg xmlns="http://www.w3.org/2000/svg" width="247" height="121" fill="none" viewBox="0 0 247 121"><path fill="url(#a)" d="M111.864 41.67q0-5.873-3.356-9.23-3.357-3.356-8.95-3.635-5.592-.28-10.626 2.237-4.755 2.238-7.551 5.034-2.517 2.797-3.636 4.474-.84 1.4-1.398 1.12-.56-.28.28-1.959.838-1.957 3.076-4.474 2.517-3.076 7.83-6.153 5.594-3.355 12.865-2.796 6.432.28 10.906 4.474 4.755 3.916 4.755 11.466 0 7.83-4.475 15.941-4.475 7.83-12.305 14.263-8.11 6.712-19.296 10.906-10.907 3.916-23.772 3.356-15.38-.839-24.05-7.55-8.67-6.713-8.39-19.856.279-12.584 8.67-23.492Q40.83 24.89 54.532 17.06 68.238 8.95 85.297 4.474A140.5 140.5 0 0 1 120.533 0q17.339 0 34.119 4.474 17.058 4.475 27.965 14.263 2.517-1.678 7.551-4.474a94 94 0 0 1 10.627-5.314q5.314-1.957 12.305-3.636 7.272-1.957 15.102-1.957 5.593 0 9.508 1.398t6.153 2.797q1.398 1.118 2.237 2.517.839 1.118.28 1.678-.56.28-1.119-.56-.56-.84-2.796-2.237-1.678-1.119-5.314-1.958-3.636-1.118-8.949-1.118-6.712 0-13.424 1.678t-12.584 4.195q-5.593 2.517-10.348 5.593-4.475 2.797-6.432 4.474 6.433 6.991 9.508 15.102a46.9 46.9 0 0 1 3.077 16.78 53 53 0 0 1-2.238 17.059q-2.237 8.39-7.271 15.66-5.873 8.67-14.822 15.102t-19.576 10.627a110.7 110.7 0 0 1-22.093 6.153q-11.186 1.957-21.813 1.957-10.907 0-21.814-.559-10.905-.28-16.5-.839-5.873.56-13.983 1.119-7.83.56-13.703.559H26.568q-8.11 0-13.983-.559-5.873-.28-9.23-1.399Q0 117.457 0 115.499q.56-3.915 12.025-4.754 11.466-1.119 28.525-.559 7.552.279 18.178 1.678 10.627 1.118 19.297 2.517 8.67-2.517 15.66-7.551a117 117 0 0 0 13.704-11.746 183 183 0 0 0 12.305-14.263 502 502 0 0 1 12.585-15.38 526 526 0 0 1 10.906-12.306 777 777 0 0 1 12.026-12.305 304 304 0 0 1 12.025-10.907q6.153-5.033 11.187-8.39-4.755-4.753-11.466-8.39-6.712-3.634-14.543-5.872a93 93 0 0 0-16.22-3.636q-8.11-1.118-15.661-1.118-16.5 0-31.881 4.754-15.102 4.755-26.847 12.864T42.788 39.152q-6.992 10.627-7.271 22.373 0 9.229 5.033 15.66 5.314 6.153 15.941 6.713 11.746.838 21.814-3.356 10.067-4.475 17.618-11.187 7.271-6.711 11.466-13.983 4.475-7.55 4.475-13.423zM82.22 115.22q1.398.279 4.195.559 3.075.28 6.432.839l6.712.559q3.635.28 6.152.28 21.534 0 39.432-9.229Q163.322 99 176.745 80.542q5.034-6.992 7.83-14.543t3.356-15.101q.839-7.55-.839-14.263-1.399-6.712-5.593-12.025-3.636 3.355-7.831 8.67-3.915 5.313-8.389 11.465a386 386 0 0 0-8.95 12.865 212 212 0 0 1-9.228 12.305q-8.11 9.787-15.941 17.059-7.83 7.27-15.661 12.585-7.83 5.313-16.22 8.949-8.11 3.635-17.06 6.432z"/><defs><linearGradient id="a" x1="8.339" x2="211.171" y1="51.212" y2="51.212" gradientUnits="userSpaceOnUse"><stop stop-color="#f6df75"/><stop offset=".587" stop-color="#ffb200"/><stop offset=".793" stop-color="#fbe47c"/><stop offset=".976" stop-color="#efd86e"/></linearGradient></defs></svg>