<svg xmlns="http://www.w3.org/2000/svg" width="83" height="76" fill="none" viewBox="0 0 83 76"><path fill="#fff9f2" d="M29.85 30.3q0-2.1.9-4.35t2.25-4.2q-2.85-2.1-4.65-4.95-1.8-3-1.8-6.3 0-4.5 3.15-7.2Q33 .6 37.8.3q4.35-.3 9.45 1.8 5.25 2.1 8.85 6.45 2.85-.45 5.55-.75 2.85-.3 5.55-.15 7.65.3 11.55 3.15 3.9 2.7 3.9 6.3 0 2.55-1.8 4.8-1.8 2.1-4.95 3.75t-7.2 2.7q-4.05.9-8.55.9-5.85 0-11.25-.9-5.4-1.05-9.75-3.15-.6.75-1.35 1.95-.6 1.2-.9 2.4-.9 2.55-.45 4.8 1.2-.3 3.45-.45t3.9 0q3.3.15 5.7 1.05 2.55.75 2.4 2.7 0 1.65-2.7 2.25t-5.55.6q-3.45 0-7.05-1.05-3.45-1.05-4.95-3-3 1.2-6.75 3.6t-6.9 5.4q-3.6 3.45-6.15 7.8-2.4 4.35-2.7 8.7-.3 5.25 3.15 8.1 3.6 2.85 9.15 2.85 6.75 0 12-2.4 5.4-2.4 9.9-5.25 2.55-1.8 5.25-4.05 2.85-2.4 3.9-3.6l.75-.75q.45-.45.9-.15.3.3 0 .9-.15.45-.6.75-.6.6-1.8 1.65-1.05 1.05-2.4 2.25t-2.85 2.4q-1.35 1.05-2.55 1.8-4.65 3.3-10.35 5.7Q28.05 74.7 21.3 75q-9.75.3-15.6-3Q0 68.85 0 61.65q0-4.05 2.1-8.1 2.25-4.05 6.3-7.5 4.05-3.6 9.75-6.3 5.85-2.85 12.9-4.5-1.2-1.95-1.2-4.8zM60 27.75q3.6 0 7.05-.75t6-2.1q2.7-1.35 4.35-3.3t1.65-4.5q.3-2.7-2.25-5.25-2.55-2.7-9.15-3-4.95 0-10.2 1.8 1.5 3 1.95 6.6.3 1.95.15 3t-.45.9-.3-.6q.15-.6-.45-2.4-.45-1.8-1.35-3.45t-1.95-3.15q-2.1 1.05-5.25 3.15t-5.7 4.5q-2.25 2.1-4.2 4.65 4.05 2.1 9.3 3t10.65.9zm-6.75-18.6q-3-3.45-7.35-5.55-4.2-2.25-8.4-1.95-3.9.3-6.6 2.55-2.7 2.1-2.7 6.15 0 2.85 1.5 5.4 1.65 2.4 4.35 4.65 1.35-1.8 2.7-3 3.15-2.85 7.5-4.95 4.5-2.1 8.85-3.3zM36.9 35.55q.45 1.5 2.55 2.4T43.8 39q2.1.15 3.6-.3 1.65-.45 1.8-1.5 0-1.05-1.95-1.5-1.8-.45-3.45-.6h-3.3q-2.1 0-3.6.3z"/></svg>