<svg xmlns="http://www.w3.org/2000/svg" width="292" height="138" fill="none" viewBox="0 0 292 138"><path fill="url(#a)" d="M33.28 137.033a83 83 0 0 1-11.746-.839q-5.593-.839-10.348-3.356a22 22 0 0 1-7.55-6.152Q.559 122.771.28 116.898q-.28-6.991 4.474-12.865 4.755-6.152 12.305-6.152 4.755 0 7.83 2.796 3.357 2.517 2.797 6.712-.559 3.356-2.237 5.593a19.5 19.5 0 0 1-3.915 3.916l-3.356 3.356q-1.398 1.398-1.958 3.635-.839 4.195 4.195 6.992 5.314 2.796 15.94 2.796 8.95 0 20.136-3.076 11.466-3.077 23.492-8.39 12.025-5.313 24.33-12.305 12.305-7.27 23.212-15.381 19.296-14.263 38.033-32.16A2875 2875 0 0 1 205.55 24.89q-10.068-1.957-23.492-3.077-13.423-1.398-31.881-1.398-11.466 0-22.373 2.237-10.906 2.238-19.855 6.712T92.847 40.83q-6.153 6.713-7.83 16.22-.84 4.195-.56 8.95.28 4.475 2.237 8.67 2.238 4.194 6.433 7.83 4.195 3.634 10.906 5.872 2.238.84 2.797.84.839 0 .559.559-.56 1.678-5.313.28-12.305-3.636-18.458-13.145-5.873-9.508-4.754-20.694 1.119-9.789 6.152-17.619 5.314-8.11 14.263-13.424 9.23-5.593 22.093-8.11 13.145-2.796 29.364-2.237 17.619.56 32.721 3.356 15.38 2.797 24.889 4.195 2.238-2.797 5.314-5.314a82 82 0 0 1 4.195-3.356q2.237-1.957 4.474-1.678 5.594.84-.559 7.272l-1.678 2.237a21 21 0 0 1-1.958 2.237q5.314.84 10.907 1.398 5.593.28 9.508 0 5.594-.28 13.424-1.118 8.11-.84 15.381-3.915 7.272-3.077 11.746-6.153 4.475-3.356 6.991-6.712 2.798-3.356 2.238-4.754-.28-1.398.839-1.958 1.398-.56 1.678 2.238a8.36 8.36 0 0 1-.839 4.754q-1.398 2.796-3.636 6.152-2.237 3.077-6.991 7.83-5.034 5.315-11.187 12.026a4793 4793 0 0 1-12.305 13.424 913 913 0 0 0-12.305 13.703 1316 1316 0 0 0-10.906 13.144 3479 3479 0 0 1-10.907 13.703q-5.314 6.992-9.509 13.424t-6.991 12.025q-2.517 5.314-2.517 9.229 0 3.636 3.356 3.636t8.949-3.077q5.873-3.075 12.585-8.669a668 668 0 0 1 6.712-5.314 112 112 0 0 0 4.754-4.474 14.7 14.7 0 0 1 2.237-1.398q1.119-.84 1.678-.28.56.559-.839 1.958-1.119 1.398-1.678 1.957a215 215 0 0 1-6.152 5.314q-3.077 2.797-8.111 6.991-4.194 3.356-10.627 7.271-6.431 3.636-12.305 3.916-5.313.28-9.228-1.958-3.636-2.237-3.356-8.39.28-8.669 5.873-17.618 5.872-9.229 14.821-20.975 4.195-5.313 10.068-12.025a777 777 0 0 1 12.026-13.424A438 438 0 0 1 246.1 42.508q6.433-6.431 11.746-10.907h-.28a618 618 0 0 0-28.245 22.373 3068 3068 0 0 0-27.966 23.212q-16.22 13.703-28.526 25.169a1006 1006 0 0 1-24.889 22.932 64 64 0 0 1-3.636 3.356q-1.677 1.678-3.635.28-1.679-1.398-1.119-3.636.559-2.237 1.958-3.915 6.151-8.39 13.983-20.695 7.83-12.305 15.94-24.89a6516 6516 0 0 1 15.941-24.33q7.83-11.466 13.423-18.457h-.279q-3.915 3.635-12.026 11.746-8.11 7.83-18.457 17.338a710 710 0 0 1-20.975 19.017q-10.907 9.51-20.135 16.22-10.347 7.831-22.652 15.102a255 255 0 0 1-24.61 12.585q-12.585 5.313-24.89 8.669t-23.212 3.356zm135.914-35.796q4.194-3.915 10.068-8.95a465 465 0 0 1 12.864-11.186q6.991-5.873 14.263-12.025a733 733 0 0 1 14.822-12.305q11.745-9.51 22.093-17.339a446 446 0 0 1 21.254-15.66v-.28q-6.152 2.236-13.424 3.355-6.991.84-13.424 1.119-4.753 0-10.627-.28-5.593-.559-10.906-1.118-5.034 7.27-11.187 17.339a1986 1986 0 0 0-12.305 20.415 950 950 0 0 1-12.305 20.135q-6.152 9.789-11.186 16.5z"/><defs><linearGradient id="a" x1="4.92" x2="253.899" y1="61.84" y2="61.84" gradientUnits="userSpaceOnUse"><stop stop-color="#f6df75"/><stop offset=".587" stop-color="#ffb200"/><stop offset=".793" stop-color="#fbe47c"/><stop offset=".976" stop-color="#efd86e"/></linearGradient></defs></svg>