<svg xmlns="http://www.w3.org/2000/svg" width="1566" height="261" fill="none" viewBox="0 0 1566 261"><path fill="#fff9f2" d="M0 238.872v-5.599l78.069-100.774q26.748-34.524 26.748-63.14 0-20.838-11.197-32.968T64.072 24.26q-12.752 0-26.126 6.22-13.374 5.91-23.95 16.485H12.13L10.575 30.17q10.887-6.22 24.883-9.642 14.307-3.732 28.614-3.732 28.615 0 46.033 13.996 17.729 13.686 17.729 36.702 0 14.307-8.709 31.725-8.71 17.106-30.17 41.678L19.906 220.21h113.837v18.662zm249.488 4.354q-22.705 0-39.501-10.886-16.485-11.197-25.504-31.725t-9.02-48.521q0-27.681 8.397-51.32t23.639-41.678q15.551-18.04 36.39-28.926 21.15-11.197 46.033-13.374l.622 5.598q-26.437 3.112-47.277 19.906-20.838 16.485-32.969 44.167-11.819 27.37-11.819 64.072 0 39.501 13.685 62.517 13.996 22.705 37.324 22.705 19.594 0 31.725-15.551t12.13-41.056q0-26.438-12.13-41.989-12.13-15.552-32.658-15.552-15.24 0-30.17 7.776l-2.799-4.977q20.216-11.508 40.745-11.508 18.039 0 31.414 8.087 13.374 7.776 20.839 22.083 7.776 14.308 7.776 33.591 0 19.907-8.398 34.836-8.398 14.93-23.639 23.327-14.929 8.398-34.835 8.398m210.381 16.796V0h9.953v260.022zm159.099-130.011q0-34.213 9.331-59.407 9.33-25.505 26.127-39.5 17.106-14.309 39.5-14.308 22.706 0 39.501 14.307 16.795 13.997 26.127 39.501 9.33 25.194 9.331 59.407 0 33.902-9.331 59.407-9.332 25.504-26.127 39.812-16.796 13.996-39.501 13.996-22.394 0-39.5-13.996-16.796-14.308-26.127-39.812-9.331-25.505-9.331-59.407m23.016 0q0 50.698 13.686 78.38 13.684 27.37 38.256 27.37 24.883 0 38.257-27.37 13.686-27.682 13.686-78.38t-13.686-78.069q-13.685-27.681-38.257-27.682T655.67 51.942q-13.686 27.37-13.686 78.069m248.701 113.215q-22.705 0-39.501-10.886-16.485-11.197-25.505-31.725t-9.019-48.521q0-27.681 8.397-51.32t23.639-41.678q15.551-18.04 36.39-28.926 21.15-11.197 46.033-13.374l.622 5.598q-26.437 3.112-47.277 19.906-20.838 16.485-32.969 44.167-11.819 27.37-11.819 64.072 0 39.501 13.685 62.517 13.996 22.705 37.324 22.705 19.595 0 31.725-15.551t12.13-41.056q0-26.438-12.13-41.989-12.13-15.552-32.658-15.552-15.241 0-30.17 7.776l-2.799-4.977q20.216-11.508 40.745-11.508 18.039 0 31.414 8.087 13.374 7.776 20.839 22.083 7.775 14.308 7.775 33.591 0 19.907-8.397 34.836-8.398 14.93-23.639 23.327-14.929 8.398-34.835 8.398m210.385 16.796V0h9.95v260.022zm148.52-21.15v-5.599l78.07-100.774c17.83-23.016 26.75-44.063 26.75-63.14 0-13.892-3.74-24.882-11.2-32.968q-11.19-12.13-29.55-12.13c-8.5 0-17.21 2.073-26.12 6.22-8.92 3.94-16.9 9.435-23.95 16.485h-1.87l-1.56-16.796c7.26-4.147 15.56-7.361 24.89-9.642 9.54-2.488 19.07-3.732 28.61-3.732 19.08 0 34.42 4.665 46.03 13.996q17.73 13.686 17.73 36.702c0 9.538-2.9 20.113-8.71 31.725-5.8 11.404-15.86 25.297-30.17 41.678l-69.04 79.313h113.83v18.662zm249.49 4.354c-15.14 0-28.31-3.629-39.5-10.886-10.99-7.465-19.49-18.04-25.51-31.725-6.01-13.686-9.02-29.859-9.02-48.521q0-27.681 8.4-51.32t23.64-41.678q15.555-18.04 36.39-28.926c14.1-7.465 29.44-11.923 46.03-13.374l.62 5.598c-17.62 2.074-33.38 8.71-47.27 19.906q-20.85 16.485-32.97 44.167-11.82 27.37-11.82 64.072 0 39.501 13.68 62.517c9.34 15.137 21.78 22.705 37.33 22.705 13.06 0 23.64-5.184 31.72-15.551 8.09-10.368 12.13-24.053 12.13-41.056 0-17.625-4.04-31.622-12.13-41.989-8.08-10.368-18.97-15.552-32.66-15.552-10.16 0-20.21 2.592-30.17 7.776l-2.79-4.977c13.47-7.672 27.06-11.508 40.74-11.508q18.045 0 31.41 8.087c8.92 5.184 15.87 12.545 20.84 22.083 5.19 9.538 7.78 20.736 7.78 33.591q0 19.907-8.4 34.836-8.4 14.93-23.64 23.327-14.925 8.398-34.83 8.398"/></svg>