<svg width="33" height="33" viewBox="0 0 33 33" fill="none" xmlns="http://www.w3.org/2000/svg">
<path fill-rule="evenodd" clip-rule="evenodd" d="M22 11C22 14.0376 19.5376 16.5 16.5 16.5C13.4624 16.5 11 14.0376 11 11C11 7.96243 13.4624 5.5 16.5 5.5C17.9587 5.5 19.3576 6.07946 20.3891 7.11091C21.4205 8.14236 22 9.54131 22 11Z" stroke="#0B1521" stroke-width="2" stroke-linecap="round" stroke-linejoin="round"/>
<path d="M17.5 16.4999C17.5 15.9476 17.0523 15.4999 16.5 15.4999C15.9477 15.4999 15.5 15.9476 15.5 16.4999H16.5H17.5ZM15.5 24.7499C15.5 25.3022 15.9477 25.7499 16.5 25.7499C17.0523 25.7499 17.5 25.3022 17.5 24.7499H16.5H15.5ZM16.3939 7.82347C15.8448 7.88204 15.4471 8.37471 15.5056 8.92388C15.5642 9.47305 16.0569 9.87076 16.6061 9.81219L16.5 8.81783L16.3939 7.82347ZM18.2896 10.8022C18.5054 11.3106 19.0925 11.5478 19.6008 11.332C20.1092 11.1162 20.3464 10.5291 20.1306 10.0207L19.2101 10.4115L18.2896 10.8022ZM12.3404 22.9947C12.8898 22.938 13.2892 22.4467 13.2325 21.8973C13.1758 21.3479 12.6845 20.9486 12.1352 21.0052L12.2378 22L12.3404 22.9947ZM7.76355 23.3832L7.28689 22.5041C7.26332 22.5169 7.24028 22.5306 7.21781 22.5452L7.76355 23.3832ZM7.16405 25.3082L6.39435 25.9466C6.42899 25.9884 6.46698 26.0273 6.50793 26.0629L7.16405 25.3082ZM10.7047 26.917L10.9225 25.941C10.8957 25.935 10.8687 25.9301 10.8415 25.9264L10.7047 26.917ZM16.5003 27.5L16.5192 26.5001C16.5065 26.4999 16.4939 26.4999 16.4812 26.5001L16.5003 27.5ZM22.2959 26.9156L22.1577 25.9252C22.1309 25.9289 22.1043 25.9338 22.0778 25.9397L22.2959 26.9156ZM25.8365 25.3L26.494 26.0534C26.5339 26.0186 26.571 25.9807 26.6049 25.94L25.8365 25.3ZM25.2371 23.375L25.7845 22.5381C25.761 22.5228 25.7369 22.5084 25.7121 22.495L25.2371 23.375ZM20.8639 21.0051C20.3144 20.9493 19.8237 21.3494 19.7679 21.8989C19.7121 22.4483 20.1123 22.939 20.6617 22.9948L20.7628 22L20.8639 21.0051ZM16.5 16.4999H15.5V24.7499H16.5H17.5V16.4999H16.5ZM16.5 8.81783L16.6061 9.81219C17.324 9.73562 18.0075 10.1376 18.2896 10.8022L19.2101 10.4115L20.1306 10.0207C19.5045 8.54565 17.9874 7.65353 16.3939 7.82347L16.5 8.81783ZM12.2378 22L12.1352 21.0052C10.4361 21.1806 8.78844 21.6899 7.28689 22.5041L7.76355 23.3832L8.24021 24.2623C9.51009 23.5737 10.9035 23.1429 12.3404 22.9947L12.2378 22ZM7.76355 23.3832L7.21781 22.5452C6.66812 22.9032 6.16338 23.3869 5.96249 24.0318C5.73898 24.7493 5.96127 25.4245 6.39435 25.9466L7.16405 25.3082L7.93375 24.6698C7.87487 24.5988 7.86993 24.5672 7.87245 24.5773C7.87674 24.5944 7.87496 24.6171 7.87199 24.6266C7.87139 24.6285 7.88332 24.5891 7.95151 24.5127C8.02022 24.4357 8.13332 24.3358 8.30928 24.2212L7.76355 23.3832ZM7.16405 25.3082L6.50793 26.0629C7.65346 27.0588 9.06414 27.6998 10.5678 27.9075L10.7047 26.917L10.8415 25.9264C9.72251 25.7718 8.67268 25.2947 7.82017 24.5536L7.16405 25.3082ZM10.7047 26.917L10.4868 27.8929C12.4663 28.3348 14.4915 28.5385 16.5194 28.4998L16.5003 27.5L16.4812 26.5001C14.6127 26.5358 12.7465 26.3481 10.9225 25.941L10.7047 26.917ZM16.5003 27.5L16.4814 28.4998C18.5093 28.538 20.5346 28.3338 22.514 27.8915L22.2959 26.9156L22.0778 25.9397C20.2539 26.3472 18.3878 26.5354 16.5192 26.5001L16.5003 27.5ZM22.2959 26.9156L22.4342 27.906C23.9387 27.696 25.3495 27.0522 26.494 26.0534L25.8365 25.3L25.1791 24.5465C24.3273 25.2898 23.2774 25.7689 22.1577 25.9252L22.2959 26.9156ZM25.8365 25.3L26.6049 25.94C27.0394 25.4183 27.2616 24.7431 27.0381 24.0256C26.8375 23.3815 26.3336 22.8973 25.7845 22.5381L25.2371 23.375L24.6896 24.2118C24.8658 24.3271 24.9793 24.4276 25.0484 24.5051C25.117 24.5822 25.1291 24.6221 25.1286 24.6204C25.1257 24.6111 25.1238 24.5881 25.1283 24.5701C25.131 24.5591 25.1266 24.5899 25.0682 24.6599L25.8365 25.3ZM25.2371 23.375L25.7121 22.495C24.2099 21.684 22.5623 21.1776 20.8639 21.0051L20.7628 22L20.6617 22.9948C22.0981 23.1408 23.4915 23.569 24.762 24.2549L25.2371 23.375Z" fill="#0B1521"/>
</svg>
